<svg width="91" height="91" viewBox="0 0 91 91" fill="none" xmlns="http://www.w3.org/2000/svg">
<circle cx="45.5" cy="45.5" r="45.5" fill="black"/>
<path d="M9 43.5651L23.6543 18.3271L53.2342 22.6692L67.8885 54.9628L53.2342 80.4721L26.368 73.6877L9 43.5651Z" fill="#060606" stroke="#060606" strokeWidth="0.542751"/>
<path d="M39.3941 11L67.8885 14.2565L52.9628 22.3978L23.6543 18.3271L39.3941 11Z" fill="#0F0F0F"/>
<path d="M67.8885 14.2565L82.0001 44.9219L67.8885 54.42L52.9629 22.3977L67.8885 14.2565Z" fill="#0F0F0F"/>
<path d="M67.8884 54.42L82 44.9219L68.1598 72.6022L52.6914 80.7434L67.8884 54.42Z" fill="#0F0F0F"/>
<path d="M27.2868 49.612V49.0939L31.4573 46.9698V47.7987L28.2582 49.34L28.2841 49.2882V49.4177L28.2582 49.3659L31.4573 50.9072V51.7361L27.2868 49.612ZM33.4527 52.5651H32.6109L35.0458 45.9336H35.8748L38.3098 52.5651H37.4679L35.4862 46.9827H35.4344L33.4527 52.5651ZM33.7636 49.9747H37.157V50.687H33.7636V49.9747ZM39.3427 52.5651V45.9336H41.5834C42.1036 45.9336 42.5289 46.0275 42.8591 46.2153C43.1916 46.401 43.4377 46.6525 43.5974 46.9698C43.7572 47.2871 43.837 47.6411 43.837 48.0319C43.837 48.4226 43.7572 48.7777 43.5974 49.0972C43.4398 49.4166 43.1959 49.6714 42.8656 49.8613C42.5353 50.0491 42.1122 50.143 41.5963 50.143H39.9903V49.4307H41.5704C41.9266 49.4307 42.2126 49.3692 42.4285 49.2461C42.6444 49.1231 42.8009 48.9568 42.898 48.7475C42.9973 48.5359 43.0469 48.2974 43.0469 48.0319C43.0469 47.7663 42.9973 47.5289 42.898 47.3195C42.8009 47.1101 42.6433 46.946 42.4253 46.8273C42.2072 46.7064 41.918 46.646 41.5575 46.646H40.1457V52.5651H39.3427ZM45.9336 45.9336V52.5651H45.1306V45.9336H45.9336ZM51.8308 49.612L47.6603 51.7361V50.9072L50.8594 49.3659L50.8335 49.4177V49.2882L50.8594 49.34L47.6603 47.7987V46.9698L51.8308 49.0939V49.612Z" fill="#FACA15"/>
</svg>
