<svg width="115" height="64" viewBox="0 0 115 64" fill="none" xmlns="http://www.w3.org/2000/svg">
<g clipPath="url(#clip0_1627_2462)">
<path opacity="0.99" d="M100.694 58.4844H11.5235C10.6224 58.4844 9.89844 57.7577 9.89844 56.8645V1.8725C9.89844 0.974216 10.6274 0.252563 11.5235 0.252563H100.694C101.595 0.252563 102.319 0.979263 102.319 1.8725V56.8594C102.324 57.7577 101.595 58.4844 100.694 58.4844Z" fill="#F9ED32"/>
<path d="M16.4805 49.295V9.44259C16.4805 7.98919 17.66 6.81335 19.118 6.81335H93.1014C94.5594 6.81335 95.7389 7.98919 95.7389 9.44259V49.2899C95.7389 50.7433 94.5594 51.9192 93.1014 51.9192H19.118C17.66 51.9242 16.4805 50.7484 16.4805 49.295Z" fill="white"/>
<path d="M102.522 63.9998H7.41268C3.74237 63.9998 0.765625 61.1687 0.765625 57.6765H6.06606H114.469H109.169C109.169 61.1687 106.192 63.9998 102.522 63.9998Z" fill="#F1F1F1"/>
<path d="M35.7126 23.9305L32.6144 21.5435C33.9812 20.4888 34.8571 18.8386 34.8469 16.9764C34.8267 13.9536 32.3562 11.4051 29.3288 11.289C26.0483 11.1628 23.35 13.7719 23.35 17.0168C23.35 18.8689 24.2359 20.509 25.6028 21.5587L23.0462 23.8397C21.8515 24.9045 21.0415 26.3276 20.7276 27.8921L20.3125 29.9965H39.0235L38.0869 27.2511C37.6364 25.934 36.8112 24.7784 35.7126 23.9305Z" fill="#262D3B"/>
<path d="M22.1602 28.4768L22.2209 28.1841C22.4639 26.9478 23.117 25.8072 24.0586 24.9645L27.977 21.4672L26.524 20.357C25.471 19.5495 23.6688 18.0406 24.8635 17.0162C26.0583 15.9867 26.762 12.7973 29.0958 12.7973C29.1515 12.7973 29.2072 12.7973 29.2679 12.8023C31.4903 12.8881 33.3128 14.7654 33.328 16.9859C33.3382 18.3081 32.7357 19.5294 31.6827 20.3469L30.1336 21.5429L34.781 25.126C35.6466 25.7971 36.2946 26.6954 36.649 27.73L36.9021 28.4718H22.1602V28.4768Z" fill="#212734"/>
<path d="M87.2946 23.9305L84.1964 21.5435C85.5633 20.4888 86.4391 18.8386 86.429 16.9764C86.4087 13.9536 83.9382 11.4051 80.9108 11.289C77.6303 11.1628 74.932 13.7719 74.932 17.0168C74.932 18.8689 75.818 20.509 77.1848 21.5587L74.6283 23.8397C73.4335 24.9045 72.6235 26.3276 72.3097 27.8921L71.8945 29.9965H90.6055L89.669 27.2511C89.2184 25.934 88.3932 24.7784 87.2946 23.9305Z" fill="#262D3B"/>
<path d="M73.7422 28.4768L73.8029 28.1841C74.0459 26.9478 74.699 25.8072 75.6406 24.9645L79.559 21.4672L78.1061 20.357C77.0531 19.5495 75.2508 18.0406 76.4456 17.0162C77.6403 15.9867 78.344 12.7973 80.6778 12.7973C80.7335 12.7973 80.7892 12.7973 80.8499 12.8023C83.0724 12.8881 84.8949 14.7654 84.9101 16.9859C84.9202 18.3081 84.3177 19.5294 83.2648 20.3469L81.7156 21.5429L86.363 25.126C87.2287 25.7971 87.8767 26.6954 88.2311 27.73L88.4842 28.4718H73.7422V28.4768Z" fill="#212734"/>
<path d="M28.7916 35.8303H25.0646C22.3193 35.8303 20.0938 38.0558 20.0938 40.8011V46.9729C20.0938 49.7183 22.3193 51.9438 25.0646 51.9438H28.7916C31.537 51.9438 33.7625 49.7183 33.7625 46.9729V40.8011C33.7625 38.0558 31.537 35.8303 28.7916 35.8303Z" fill="white"/>
<path d="M33.2165 49.1282L30.1183 46.7412C31.4851 45.6864 32.361 44.0362 32.3508 42.1741C32.3306 39.1512 29.8601 36.6027 26.8327 36.4866C23.5522 36.3605 20.8539 38.9695 20.8539 42.2144C20.8539 44.0665 21.7398 45.7066 23.1067 46.7563L20.5502 49.0373C19.3554 50.1021 18.5454 51.5253 18.2315 53.0897L17.8164 55.1941H36.5274L35.5908 52.4488C35.1403 51.1266 34.3151 49.976 33.2165 49.1282Z" fill="#262D3B"/>
<path d="M19.6641 53.6745L19.7248 53.3818C19.9678 52.1454 20.6209 51.0049 21.5625 50.1621L25.4809 46.6649L24.0279 45.5546C22.9749 44.7472 21.1727 43.2383 22.3674 42.2138C23.5622 41.1894 24.2659 37.9949 26.5997 37.9949C26.6554 37.9949 26.7111 37.9949 26.7718 38C28.9942 38.0858 30.8167 39.9631 30.8319 42.1835C30.8421 43.5057 30.2396 44.727 29.1866 45.5445L27.6375 46.7406L32.2849 50.3236C33.1506 50.9948 33.7986 51.8931 34.1529 52.9276L34.4061 53.6694H19.6641V53.6745Z" fill="#212734"/>
<path d="M49.2404 51.9436C45.4638 51.9234 42.4213 48.8602 42.4415 45.0955L42.4921 35.7947L56.1609 35.8654L56.1102 45.1661C56.0951 48.9258 53.0171 51.9588 49.2404 51.9436Z" fill="white"/>
<path d="M55.5426 49.1583L52.4596 46.7511C53.8315 45.7014 54.7174 44.0562 54.7174 42.1991C54.7124 39.1763 52.2571 36.6126 49.2297 36.4814C45.9492 36.3351 43.2357 38.934 43.2205 42.1789C43.2104 44.031 44.0862 45.6762 45.448 46.7309L42.8813 48.9968C41.6815 50.0566 40.8614 51.4746 40.5424 53.0391L40.1172 55.1384L58.8282 55.2343L57.9017 52.4839C57.4613 51.1718 56.6412 50.0162 55.5426 49.1583Z" fill="#262D3B"/>
<path d="M41.9688 53.635L42.0295 53.3423C42.2826 52.1109 42.9407 50.9704 43.8874 50.1327L47.8261 46.6557L46.3832 45.5353C45.3302 44.7228 43.5432 43.2038 44.743 42.1844C45.9428 41.165 46.6617 37.9756 48.9955 37.9908C49.0512 37.9908 49.1069 37.9908 49.1676 37.9958C51.3901 38.0917 53.2024 39.9791 53.2075 42.2046C53.2075 43.5268 52.6051 44.7481 51.547 45.5555L49.9928 46.7465L54.6199 50.3548C55.4856 51.031 56.1235 51.9343 56.4728 52.9689L56.7259 53.7157L41.9688 53.635Z" fill="#212734"/>
<path d="M43.8516 21.2306H55.5662" stroke="#212734" stroke-width="0.621359" stroke-miterlimit="10" stroke-linecap="round"/>
<path d="M62.2812 43.8919H73.9959" stroke="#212734" stroke-width="0.621359" stroke-miterlimit="10" stroke-linecap="round"/>
<path d="M43.8516 17.4459H66.81" stroke="#212734" stroke-width="0.621359" stroke-miterlimit="10" stroke-linecap="round"/>
<path d="M62.2812 40.1072H85.2397" stroke="#212734" stroke-width="0.621359" stroke-miterlimit="10" stroke-linecap="round"/>
<path d="M43.8516 13.9983H66.81" stroke="#212734" stroke-width="0.621359" stroke-miterlimit="10" stroke-linecap="round"/>
<path d="M62.2812 36.6596H85.2397" stroke="#212734" stroke-width="0.621359" stroke-miterlimit="10" stroke-linecap="round"/>
</g>
<defs>
<clipPath id="clip0_1627_2462">
<rect width="113.709" height="64" fill="white" transform="translate(0.765625)"/>
</clipPath>
</defs>
</svg>
