<svg width="64" height="64" viewBox="0 0 64 64" fill="none" xmlns="http://www.w3.org/2000/svg">
<rect width="64" height="64" rx="32" fill="black"/>
<path d="M13 21.7487L28.7068 30.2388C29.8102 30.8353 31.0447 31.1476 32.299 31.1476C33.6626 31.1476 35.0007 30.7785 36.1714 30.0795L50.1257 21.7487V30.6776L35.606 38.4089C33.3598 39.6049 30.6782 39.6593 28.3854 38.5553L13 31.1476V21.7487Z" fill="#0F0F0F"/>
<path d="M13 34.4371L28.4745 43.3403C29.5742 43.973 30.8207 44.306 32.0894 44.306C33.4349 44.306 34.7538 43.9315 35.8986 43.2245L50.1257 34.4371V43.3661L35.8162 50.9854C33.4379 52.2518 30.5985 52.3094 28.1708 51.1405L13 43.836V34.4371Z" fill="#FACA15"/>
<path d="M16.2891 19.3989L26.1582 13.2307C29.3606 11.2292 33.3835 11.0728 36.7317 12.8197L46.8355 18.929L39.3164 23.6284L32.9677 20.0573C32.2425 19.6493 31.3555 19.6554 30.6359 20.0733L24.5131 23.6284L20.7535 21.5137L16.2891 19.3989Z" fill="#060606"/>
</svg>
