<svg width="375" height="272" viewBox="0 0 375 272" fill="none" xmlns="http://www.w3.org/2000/svg">
<circle cx="238.06" cy="136.94" r="136.94" fill="#030302"/>
<circle cx="238.335" cy="136.939" r="97.8141" fill="black"/>
<circle cx="238.059" cy="137.211" r="53.4533" fill="#030302"/>
<path d="M229.355 145.094V138.844L226.047 132.962L225.679 128.918C223.841 127.325 220.753 123.184 223.106 119.36L223.726 107.898C223.798 106.56 224.53 105.345 225.679 104.656V97.9194C225.659 97.4736 225.679 97.1513 225.679 97.1513V97.9194C225.744 99.4029 226.245 102.253 229.355 99.1412C233.4 95.0941 248.178 93.0341 254.354 103.916L255.089 120.095C255.702 122.423 256.266 127.815 253.619 130.756L252.883 131.491L250.678 137.005L249.207 138.844V144.725L271.632 157.96C268.446 163.719 258.692 175.679 245.163 177.444C238.669 179.037 221.856 178.841 206.563 165.312L203.255 160.901L229.355 145.094Z" fill="#47A4DF"/>
<path d="M234.867 146.924L228.985 145.086L233.764 178.539L237.808 153.909L236.338 150.6L234.867 146.924Z" fill="white"/>
<path d="M242.221 150.6L242.957 146.924L249.206 145.086L245.898 173.025L244.06 177.069L241.119 153.174L242.221 150.6Z" fill="white"/>
<rect y="39.125" width="184.607" height="115.724" rx="5.51065" fill="#F5E900"/>
<rect y="39.125" width="184.607" height="24.2469" fill="black"/>
<circle cx="12.6731" cy="54.5564" r="3.30639" fill="white"/>
<circle cx="22.0412" cy="54.5564" r="3.30639" fill="white"/>
<circle cx="31.4093" cy="54.5564" r="3.30639" fill="white"/>
<circle cx="25.3495" cy="96.9839" r="14.3277" fill="black"/>
<g clip-path="url(#clip0_4901_2905)">
<path d="M27.1866 94.4169C27.1866 93.2477 26.7222 92.1264 25.8954 91.2996C25.0686 90.4728 23.9473 90.0084 22.7781 90.0084C21.6089 90.0084 20.4876 90.4728 19.6608 91.2996C18.8341 92.1264 18.3696 93.2477 18.3696 94.4169C18.3696 95.5861 18.8341 96.7074 19.6608 97.5342C20.4876 98.361 21.6089 98.8254 22.7781 98.8254C23.9473 98.8254 25.0686 98.361 25.8954 97.5342C26.7222 96.7074 27.1866 95.5861 27.1866 94.4169ZM28.2888 94.4169C28.2888 95.8784 27.7082 97.2801 26.6747 98.3135C25.6413 99.347 24.2396 99.9276 22.7781 99.9276C21.3166 99.9276 19.9149 99.347 18.8815 98.3135C17.848 97.2801 17.2675 95.8784 17.2675 94.4169C17.2675 92.9554 17.848 91.5537 18.8815 90.5203C19.9149 89.4868 21.3166 88.9062 22.7781 88.9062C24.2396 88.9062 25.6413 89.4868 26.6747 90.5203C27.7082 91.5537 28.2888 92.9554 28.2888 94.4169ZM31.4335 99.0312C31.4877 98.9807 31.5311 98.9199 31.5612 98.8523C31.5913 98.7847 31.6075 98.7117 31.6088 98.6377C31.6101 98.5637 31.5965 98.4902 31.5688 98.4216C31.5411 98.353 31.4998 98.2907 31.4475 98.2383C31.3952 98.186 31.3328 98.1448 31.2642 98.117C31.1956 98.0893 31.1221 98.0757 31.0481 98.077C30.9741 98.0783 30.9012 98.0945 30.8336 98.1246C30.766 98.1548 30.7051 98.1982 30.6547 98.2523L28.1051 100.802L27.025 99.7218C26.9745 99.6677 26.9137 99.6243 26.8461 99.5941C26.7785 99.564 26.7055 99.5478 26.6315 99.5465C26.5576 99.5452 26.4841 99.5588 26.4154 99.5865C26.3468 99.6143 26.2845 99.6555 26.2322 99.7078C26.1798 99.7602 26.1386 99.8225 26.1109 99.8911C26.0831 99.9597 26.0695 100.033 26.0708 100.107C26.0721 100.181 26.0883 100.254 26.1185 100.322C26.1486 100.389 26.192 100.45 26.2461 100.501L27.7157 101.97C27.819 102.073 27.959 102.131 28.1051 102.131C28.2511 102.131 28.3912 102.073 28.4945 101.97L31.4335 99.0312ZM25.5555 92.3743C25.6587 92.4776 25.7166 92.6177 25.7166 92.7637C25.7166 92.9097 25.6587 93.0498 25.5555 93.1531L22.6165 96.0921C22.5131 96.1953 22.3731 96.2533 22.227 96.2533C22.081 96.2533 21.941 96.1953 21.8376 96.0921L20.3681 94.6226C20.2708 94.5182 20.2178 94.38 20.2203 94.2372C20.2228 94.0945 20.2807 93.9583 20.3816 93.8573C20.4826 93.7563 20.6188 93.6985 20.7616 93.696C20.9043 93.6935 21.0425 93.7465 21.147 93.8438L22.227 94.9239L24.7766 92.3743C24.88 92.2711 25.02 92.2131 25.1661 92.2131C25.3121 92.2131 25.4522 92.2711 25.5555 92.3743ZM23.6966 102.867V100.595C24.0714 100.54 24.4403 100.451 24.7987 100.328V102.867C24.7987 103.576 25.3747 104.152 26.0845 104.152H31.2278C31.5688 104.152 31.8959 104.017 32.137 103.776C32.3781 103.535 32.5136 103.208 32.5136 102.867V97.7233C32.5136 97.3823 32.3781 97.0552 32.137 96.8141C31.8959 96.5729 31.5688 96.4375 31.2278 96.4375H28.6892C28.8112 96.0828 28.9003 95.7155 28.9567 95.3353H31.2278C31.8611 95.3353 32.4685 95.5869 32.9163 96.0348C33.3641 96.4826 33.6157 97.09 33.6157 97.7233V102.867C33.6157 103.5 33.3641 104.107 32.9163 104.555C32.4685 105.003 31.8611 105.255 31.2278 105.255H26.0845C25.4512 105.255 24.8438 105.003 24.396 104.555C23.9481 104.107 23.6966 103.5 23.6966 102.867Z" fill="#1C64F2"/>
</g>
<rect x="55.1071" y="88.1719" width="85.9662" height="7.16385" rx="3.58193" fill="black"/>
<rect x="55.1071" y="99.1953" width="57.3108" height="7.16385" rx="3.58193" fill="black"/>
<path d="M54.4745 135.426H55.1159V141.156H54.4745V135.426ZM60.0583 134.983V141.156H59.4168V140.308C59.259 140.604 59.0494 140.833 58.7883 140.997C58.5271 141.161 58.2315 141.242 57.9014 141.242C57.3188 141.242 56.8495 141.031 56.4936 140.609C56.1377 140.185 55.9597 139.626 55.9597 138.935C55.9597 138.249 56.1377 137.695 56.4936 137.273C56.8524 136.851 57.3216 136.64 57.9014 136.64C58.2343 136.64 58.53 136.722 58.7883 136.885C59.0494 137.049 59.259 137.28 59.4168 137.579V134.983H60.0583ZM56.6314 138.935C56.6314 139.474 56.7519 139.893 56.993 140.192C57.237 140.488 57.5799 140.635 58.0219 140.635C58.4639 140.635 58.8069 140.486 59.0509 140.188C59.2948 139.889 59.4168 139.471 59.4168 138.935C59.4168 138.401 59.2948 137.988 59.0509 137.695C58.8069 137.399 58.4639 137.251 58.0219 137.251C57.5799 137.251 57.237 137.399 56.993 137.695C56.7519 137.988 56.6314 138.401 56.6314 138.935ZM60.9021 138.935C60.9021 138.234 61.0858 137.681 61.4532 137.273C61.8234 136.865 62.3243 136.662 62.9557 136.662C63.5556 136.662 64.0478 136.867 64.4324 137.277C64.817 137.685 65.0093 138.207 65.0093 138.844V139.12H61.5823C61.6082 139.616 61.7416 139.995 61.9827 140.256C62.2267 140.515 62.5697 140.644 63.0117 140.644C63.3647 140.644 63.6488 140.566 63.8641 140.411C64.0794 140.254 64.2142 140.037 64.2688 139.761H64.9576C64.8629 140.238 64.6519 140.601 64.3247 140.851C64.0004 141.1 63.5627 141.225 63.0117 141.225C62.363 141.225 61.8493 141.02 61.4704 140.609C61.0915 140.199 60.9021 139.641 60.9021 138.935ZM62.9557 137.217C62.551 137.217 62.2324 137.333 61.9999 137.566C61.7703 137.795 61.634 138.137 61.5909 138.59H64.3161C64.2817 138.171 64.1411 137.838 63.8942 137.592C63.6474 137.342 63.3346 137.217 62.9557 137.217ZM68.9141 138.483C68.9141 138.067 68.8108 137.759 68.6041 137.561C68.4003 137.36 68.1105 137.26 67.7345 137.26C67.3814 137.26 67.0887 137.371 66.8562 137.592C66.6237 137.81 66.5075 138.09 66.5075 138.431V141.156H65.8574V136.748H66.5075V137.437C66.6625 137.19 66.8706 136.996 67.1317 136.855C67.3929 136.712 67.6584 136.64 67.9282 136.64C68.4161 136.64 68.8093 136.791 69.1078 137.092C69.4092 137.394 69.5599 137.814 69.5599 138.354V141.156H68.9141V138.483ZM72.4659 140.575V141.156H72.0698C71.7627 141.156 71.5087 141.066 71.3078 140.885C71.1097 140.701 71.0107 140.416 71.0107 140.028V137.32H70.2013V136.748H71.0107V135.603H71.6565V136.748H72.4659V137.32H71.6565V139.946C71.6565 140.182 71.6967 140.345 71.777 140.437C71.8574 140.529 71.9722 140.575 72.1215 140.575H72.4659ZM73.1633 135.4H73.9296V136.132H73.1633V135.4ZM73.2279 136.748H73.8694V141.156H73.2279V136.748ZM76.8916 140.575V141.156H76.4955C76.1884 141.156 75.9344 141.066 75.7335 140.885C75.5355 140.701 75.4365 140.416 75.4365 140.028V137.32H74.6271V136.748H75.4365V135.603H76.0822V136.748H76.8916V137.32H76.0822V139.946C76.0822 140.182 76.1224 140.345 76.2028 140.437C76.2832 140.529 76.398 140.575 76.5472 140.575H76.8916ZM77.7225 141.94H78.3296C78.5362 141.94 78.6984 141.895 78.816 141.806C78.9337 141.72 79.0299 141.571 79.1045 141.359L79.2035 141.113L77.4771 136.748H78.1875L79.5996 140.373L80.9773 136.748H81.6919L79.8751 141.427C79.7201 141.835 79.5422 142.125 79.3413 142.297C79.1404 142.472 78.8792 142.56 78.5577 142.56H77.7225V141.94ZM84.0383 136.748H84.7486L86.1435 140.424L87.4996 136.748H88.2229L86.4965 141.156H85.7646L84.0383 136.748ZM88.662 138.935C88.662 138.234 88.8457 137.681 89.2131 137.273C89.5834 136.865 90.0842 136.662 90.7156 136.662C91.3155 136.662 91.8077 136.867 92.1923 137.277C92.5769 137.685 92.7692 138.207 92.7692 138.844V139.12H89.3423C89.3681 139.616 89.5016 139.995 89.7426 140.256C89.9866 140.515 90.3296 140.644 90.7716 140.644C91.1246 140.644 91.4088 140.566 91.624 140.411C91.8393 140.254 91.9742 140.037 92.0287 139.761H92.7175C92.6228 140.238 92.4119 140.601 92.0847 140.851C91.7603 141.1 91.3227 141.225 90.7716 141.225C90.1229 141.225 89.6092 141.02 89.2303 140.609C88.8515 140.199 88.662 139.641 88.662 138.935ZM90.7156 137.217C90.3109 137.217 89.9923 137.333 89.7599 137.566C89.5303 137.795 89.3939 138.137 89.3509 138.59H92.0761C92.0416 138.171 91.901 137.838 91.6542 137.592C91.4073 137.342 91.0945 137.217 90.7156 137.217ZM93.6173 136.748H94.2588V137.419C94.4023 137.181 94.586 136.996 94.8099 136.864C95.0366 136.729 95.2676 136.662 95.503 136.662H95.7053V137.338H95.5116C95.1586 137.338 94.8615 137.445 94.6204 137.66C94.3793 137.876 94.2588 138.15 94.2588 138.483V141.156H93.6173V136.748ZM96.42 135.4H97.1863V136.132H96.42V135.4ZM96.4846 136.748H97.1261V141.156H96.4846V136.748ZM97.8838 137.32V136.748H98.5769V136.115C98.5769 135.727 98.6888 135.442 98.9127 135.258C99.1366 135.074 99.4164 134.983 99.7522 134.983H100.148V135.559H99.8039C99.6173 135.559 99.4753 135.603 99.3777 135.689C99.2801 135.775 99.2313 135.934 99.2313 136.167V136.748H100.148V137.32H99.2313V141.156H98.5769V137.32H97.8838ZM100.846 135.4H101.612V136.132H100.846V135.4ZM100.91 136.748H101.552V141.156H100.91V136.748ZM102.396 138.935C102.396 138.249 102.585 137.695 102.964 137.273C103.343 136.851 103.841 136.64 104.458 136.64C105.015 136.64 105.477 136.801 105.844 137.122C106.211 137.441 106.414 137.863 106.451 138.388H105.78C105.768 138.035 105.642 137.758 105.401 137.557C105.162 137.353 104.848 137.251 104.458 137.251C104.013 137.251 103.67 137.398 103.429 137.691C103.188 137.98 103.067 138.395 103.067 138.935C103.067 139.474 103.188 139.893 103.429 140.192C103.673 140.488 104.016 140.635 104.458 140.635C104.845 140.635 105.158 140.542 105.396 140.355C105.635 140.166 105.762 139.906 105.78 139.576H106.451C106.402 140.087 106.196 140.493 105.831 140.795C105.47 141.093 105.012 141.242 104.458 141.242C103.841 141.242 103.343 141.031 102.964 140.609C102.585 140.185 102.396 139.626 102.396 138.935ZM110.885 139.895C110.885 140.411 110.927 140.832 111.01 141.156H110.347C110.299 140.961 110.264 140.694 110.244 140.355C110.078 140.634 109.857 140.853 109.581 141.014C109.305 141.175 109 141.255 108.664 141.255C108.239 141.255 107.89 141.132 107.618 140.885C107.345 140.638 107.209 140.322 107.209 139.938C107.209 139.579 107.321 139.294 107.545 139.081C107.769 138.869 108.08 138.753 108.479 138.732L109.714 138.642C109.904 138.631 110.037 138.592 110.115 138.526C110.195 138.457 110.235 138.349 110.235 138.203V138.186C110.235 137.913 110.126 137.683 109.908 137.497C109.69 137.31 109.425 137.217 109.112 137.217C108.397 137.217 108.001 137.526 107.923 138.143H107.243C107.272 137.689 107.456 137.327 107.794 137.058C108.133 136.785 108.569 136.649 109.103 136.649C109.62 136.649 110.046 136.798 110.382 137.096C110.718 137.395 110.885 137.772 110.885 138.229V139.895ZM107.872 139.903C107.872 140.139 107.961 140.325 108.139 140.463C108.32 140.601 108.559 140.67 108.858 140.67C109.254 140.67 109.582 140.536 109.844 140.269C110.105 140.002 110.235 139.667 110.235 139.262V139.129L108.698 139.223C108.147 139.258 107.872 139.484 107.872 139.903ZM113.796 140.575V141.156H113.4C113.093 141.156 112.839 141.066 112.638 140.885C112.44 140.701 112.341 140.416 112.341 140.028V137.32H111.531V136.748H112.341V135.603H112.986V136.748H113.796V137.32H112.986V139.946C112.986 140.182 113.027 140.345 113.107 140.437C113.187 140.529 113.302 140.575 113.451 140.575H113.796ZM114.493 135.4H115.26V136.132H114.493V135.4ZM114.558 136.748H115.199V141.156H114.558V136.748ZM116.043 138.935C116.043 138.249 116.233 137.695 116.611 137.273C116.99 136.851 117.491 136.64 118.114 136.64C118.731 136.64 119.228 136.851 119.604 137.273C119.982 137.695 120.172 138.249 120.172 138.935C120.172 139.626 119.982 140.185 119.604 140.609C119.228 141.031 118.731 141.242 118.114 141.242C117.491 141.242 116.99 141.031 116.611 140.609C116.233 140.188 116.043 139.629 116.043 138.935ZM119.5 138.935C119.5 138.401 119.378 137.988 119.134 137.695C118.89 137.399 118.55 137.251 118.114 137.251C117.669 137.251 117.325 137.399 117.081 137.695C116.837 137.988 116.715 138.401 116.715 138.935C116.715 139.474 116.837 139.893 117.081 140.192C117.325 140.488 117.669 140.635 118.114 140.635C118.55 140.635 118.89 140.486 119.134 140.188C119.378 139.889 119.5 139.471 119.5 138.935ZM124.072 138.483C124.072 138.067 123.969 137.759 123.762 137.561C123.559 137.36 123.269 137.26 122.893 137.26C122.54 137.26 122.247 137.371 122.014 137.592C121.782 137.81 121.666 138.09 121.666 138.431V141.156H121.016V136.748H121.666V137.437C121.821 137.19 122.029 136.996 122.29 136.855C122.551 136.712 122.817 136.64 123.086 136.64C123.574 136.64 123.968 136.791 124.266 137.092C124.567 137.394 124.718 137.814 124.718 138.354V141.156H124.072V138.483Z" fill="black"/>
<defs>
<clipPath id="clip0_4901_2905">
<rect width="17.6341" height="17.6341" fill="white" transform="translate(16.5316 88.1719)"/>
</clipPath>
</defs>
</svg>
