<svg width="64" height="64" viewBox="0 0 64 64" fill="none" xmlns="http://www.w3.org/2000/svg">
<rect width="64" height="64" rx="32" fill="black"/>
<path d="M14.0978 42.9685C13.5497 42.6075 13.2197 41.9952 13.2197 41.3389V31.6252C13.2197 30.3855 14.3607 29.4602 15.5737 29.716L43.9263 35.6967C44.2623 35.7675 44.5736 35.9258 44.8289 36.1555L49.9454 40.7604C50.8742 41.5963 50.7889 43.0776 49.7703 43.8013L34.308 54.7877C33.6519 55.2538 32.7769 55.2693 32.1047 54.8267L14.0978 42.9685Z" fill="#121212"/>
<path d="M14.1118 32.479C13.5556 32.1195 13.2197 31.5025 13.2197 30.8403V21.3721C13.2197 20.1355 14.3555 19.2107 15.5665 19.4614L43.9316 25.3339C44.2642 25.4028 44.5732 25.5573 44.8278 25.7822L49.8961 30.2593C50.8435 31.0961 50.7573 32.5991 49.7205 33.3221L34.2945 44.0797C33.6445 44.533 32.7848 44.5481 32.1192 44.118L14.1118 32.479Z" fill="#0F0F0F"/>
<path d="M14.6747 21.6007C13.4461 20.8291 13.4595 19.0341 14.6995 18.2808L30.6284 8.60399C31.2409 8.23189 32.0081 8.22552 32.6268 8.5874L49.3103 18.3472C50.5537 19.0746 50.6072 20.8524 49.4099 21.6533L33.6804 32.1747C33.0408 32.6026 32.2094 32.6145 31.5577 32.2052L14.6747 21.6007Z" fill="#FACA15"/>
</svg>
