<svg width="115" height="64" viewBox="0 0 115 64" fill="none" xmlns="http://www.w3.org/2000/svg">
<g clipPath="url(#clip0_1627_2516)">
<path opacity="0.99" d="M100.694 58.4844H11.5235C10.6224 58.4844 9.89844 57.7577 9.89844 56.8645V1.8725C9.89844 0.974216 10.6274 0.252563 11.5235 0.252563H100.694C101.595 0.252563 102.319 0.979263 102.319 1.8725V56.8594C102.324 57.7577 101.595 58.4844 100.694 58.4844Z" fill="#F9ED32"/>
<path d="M16.4805 49.295V9.44259C16.4805 7.98919 17.66 6.81335 19.118 6.81335H93.1014C94.5594 6.81335 95.7389 7.98919 95.7389 9.44259V49.2899C95.7389 50.7433 94.5594 51.9192 93.1014 51.9192H19.118C17.66 51.9242 16.4805 50.7484 16.4805 49.295Z" fill="white"/>
<path d="M102.522 63.9998H7.41268C3.74237 63.9998 0.765625 61.1687 0.765625 57.6765H6.06606H114.469H109.169C109.169 61.1687 106.192 63.9998 102.522 63.9998Z" fill="#F1F1F1"/>
<path d="M35.7126 23.9305L32.6144 21.5435C33.9812 20.4888 34.8571 18.8386 34.8469 16.9764C34.8267 13.9536 32.3562 11.4051 29.3288 11.289C26.0483 11.1628 23.35 13.7719 23.35 17.0168C23.35 18.8689 24.2359 20.509 25.6028 21.5587L23.0462 23.8397C21.8515 24.9045 21.0415 26.3276 20.7276 27.8921L20.3125 29.9965H39.0235L38.0869 27.2511C37.6364 25.934 36.8112 24.7784 35.7126 23.9305Z" fill="#262D3B"/>
<path d="M22.1602 28.4768L22.2209 28.1841C22.4639 26.9478 23.117 25.8072 24.0586 24.9645L27.977 21.4672L26.524 20.357C25.471 19.5495 23.6688 18.0406 24.8635 17.0162C26.0583 15.9867 26.762 12.7973 29.0958 12.7973C29.1515 12.7973 29.2072 12.7973 29.2679 12.8023C31.4903 12.8881 33.3128 14.7654 33.328 16.9859C33.3382 18.3081 32.7357 19.5294 31.6827 20.3469L30.1336 21.5429L34.781 25.126C35.6466 25.7971 36.2946 26.6954 36.649 27.73L36.9021 28.4718H22.1602V28.4768Z" fill="#212734"/>
<path d="M28.7916 35.8303H25.0646C22.3193 35.8303 20.0938 38.0558 20.0938 40.8011V46.9729C20.0938 49.7183 22.3193 51.9438 25.0646 51.9438H28.7916C31.537 51.9438 33.7625 49.7183 33.7625 46.9729V40.8011C33.7625 38.0558 31.537 35.8303 28.7916 35.8303Z" fill="white"/>
<path d="M33.2165 49.1282L30.1183 46.7412C31.4851 45.6864 32.361 44.0362 32.3508 42.1741C32.3306 39.1512 29.8601 36.6027 26.8327 36.4866C23.5522 36.3605 20.8539 38.9695 20.8539 42.2144C20.8539 44.0665 21.7398 45.7066 23.1067 46.7563L20.5502 49.0373C19.3554 50.1021 18.5454 51.5253 18.2315 53.0897L17.8164 55.1941H36.5274L35.5908 52.4488C35.1403 51.1266 34.3151 49.976 33.2165 49.1282Z" fill="#262D3B"/>
<path d="M19.6641 53.6745L19.7248 53.3818C19.9678 52.1454 20.6209 51.0049 21.5625 50.1621L25.4809 46.6649L24.0279 45.5546C22.9749 44.7472 21.1727 43.2383 22.3674 42.2138C23.5622 41.1894 24.2659 37.9949 26.5997 37.9949C26.6554 37.9949 26.7111 37.9949 26.7718 38C28.9942 38.0858 30.8167 39.9631 30.8319 42.1835C30.8421 43.5057 30.2396 44.727 29.1866 45.5445L27.6375 46.7406L32.2849 50.3236C33.1506 50.9948 33.7986 51.8931 34.1529 52.9276L34.4061 53.6694H19.6641V53.6745Z" fill="#212734"/>
<path d="M49.2404 51.9436C45.4638 51.9234 42.4213 48.8602 42.4415 45.0955L42.4921 35.7947L56.1609 35.8654L56.1102 45.1661C56.0951 48.9258 53.0171 51.9588 49.2404 51.9436Z" fill="white"/>
<path d="M55.5426 49.1583L52.4596 46.7511C53.8315 45.7014 54.7174 44.0562 54.7174 42.1991C54.7124 39.1763 52.2571 36.6126 49.2297 36.4814C45.9492 36.3351 43.2357 38.934 43.2205 42.1789C43.2104 44.031 44.0862 45.6762 45.448 46.7309L42.8813 48.9968C41.6815 50.0566 40.8614 51.4746 40.5424 53.0391L40.1172 55.1384L58.8282 55.2343L57.9017 52.4839C57.4613 51.1718 56.6412 50.0162 55.5426 49.1583Z" fill="#262D3B"/>
<path d="M41.9688 53.635L42.0295 53.3423C42.2826 52.1109 42.9407 50.9704 43.8874 50.1327L47.8261 46.6557L46.3832 45.5353C45.3302 44.7228 43.5432 43.2038 44.743 42.1844C45.9428 41.165 46.6617 37.9756 48.9955 37.9908C49.0512 37.9908 49.1069 37.9908 49.1676 37.9958C51.3901 38.0917 53.2024 39.9791 53.2075 42.2046C53.2075 43.5268 52.6051 44.7481 51.547 45.5555L49.9928 46.7465L54.6199 50.3548C55.4856 51.031 56.1235 51.9343 56.4728 52.9689L56.7259 53.7157L41.9688 53.635Z" fill="#212734"/>
<path d="M43.8516 21.2306H55.5662" stroke="#212734" stroke-width="0.621359" stroke-miterlimit="10" stroke-linecap="round"/>
<path d="M62.2812 43.8919H73.9959" stroke="#212734" stroke-width="0.621359" stroke-miterlimit="10" stroke-linecap="round"/>
<path d="M43.8516 17.4459H66.81" stroke="#212734" stroke-width="0.621359" stroke-miterlimit="10" stroke-linecap="round"/>
<path d="M62.2812 40.1072H85.2397" stroke="#212734" stroke-width="0.621359" stroke-miterlimit="10" stroke-linecap="round"/>
<path d="M43.8516 13.9983H66.81" stroke="#212734" stroke-width="0.621359" stroke-miterlimit="10" stroke-linecap="round"/>
<path d="M62.2812 36.6596H85.2397" stroke="#212734" stroke-width="0.621359" stroke-miterlimit="10" stroke-linecap="round"/>
<path d="M52.9609 51.0735C52.9609 49.6052 53.5442 48.197 54.5825 47.1587C55.6207 46.1205 57.0289 45.5372 58.4972 45.5372C59.9656 45.5372 61.3737 46.1205 62.412 47.1587C63.4503 48.197 64.0336 49.6052 64.0336 51.0735C64.0336 52.5418 63.4503 53.95 62.412 54.9882C61.3737 56.0265 59.9656 56.6098 58.4972 56.6098C57.0289 56.6098 55.6207 56.0265 54.5825 54.9882C53.5442 53.95 52.9609 52.5418 52.9609 51.0735ZM61.1037 50.0814C61.1552 50.0299 61.196 49.9688 61.2239 49.9015C61.2518 49.8343 61.2661 49.7622 61.2661 49.6894C61.2661 49.6166 61.2518 49.5445 61.2239 49.4773C61.196 49.41 61.1552 49.3489 61.1037 49.2974C61.0523 49.246 60.9912 49.2051 60.9239 49.1773C60.8566 49.1494 60.7846 49.1351 60.7118 49.1351C60.639 49.1351 60.5669 49.1494 60.4996 49.1773C60.4324 49.2051 60.3713 49.246 60.3198 49.2974L57.9436 51.6747L56.6747 50.4047C56.6232 50.3532 56.5621 50.3124 56.4949 50.2845C56.4276 50.2567 56.3555 50.2423 56.2827 50.2423C56.2099 50.2423 56.1378 50.2567 56.0706 50.2845C56.0033 50.3124 55.9422 50.3532 55.8908 50.4047C55.8393 50.4562 55.7984 50.5173 55.7706 50.5845C55.7427 50.6518 55.7284 50.7239 55.7284 50.7967C55.7284 50.8695 55.7427 50.9415 55.7706 51.0088C55.7984 51.0761 55.8393 51.1372 55.8908 51.1886L57.5516 52.8495C57.6031 52.9011 57.6642 52.942 57.7314 52.9699C57.7987 52.9978 57.8708 53.0122 57.9436 53.0122C58.0164 53.0122 58.0885 52.9978 58.1558 52.9699C58.2231 52.942 58.2842 52.9011 58.3356 52.8495L61.1037 50.0814Z" fill="#1C64F2"/>
</g>
<defs>
<clipPath id="clip0_1627_2516">
<rect width="113.709" height="64" fill="white" transform="translate(0.765625)"/>
</clipPath>
</defs>
</svg>
