<svg width="64" height="64" viewBox="0 0 64 64" fill="none" xmlns="http://www.w3.org/2000/svg">
<rect width="64" height="64" rx="32" fill="black"/>
<rect width="26.7786" height="29.6121" rx="5.99983" transform="matrix(0.961262 0.275637 0 1 25.7734 7.99988)" fill="#D9D9D9"/>
<rect width="18.3381" height="3.36541" rx="1.16126" transform="matrix(0.961262 0.275637 0 1 29.8379 10.7096)" fill="#FAFAFA"/>
<rect width="18.3381" height="3.36541" rx="1.16126" transform="matrix(0.961262 0.275637 0 1 29.4521 14.9675)" fill="#FAFAFA"/>
<rect width="28.792" height="37.1607" rx="5.99983" transform="matrix(0.961262 0.275637 0 1 17.4521 10.9031)" fill="#111111"/>
<rect width="23.9598" height="18.6271" rx="3.09669" transform="matrix(0.961262 0.275637 0 1 19.7734 13.9998)" fill="white"/>
<rect width="23.9598" height="3.93555" rx="1.96778" transform="matrix(0.961262 0.275637 0 1 19.7734 33.9347)" fill="white"/>
<rect width="23.9598" height="3.93555" rx="1.96778" transform="matrix(0.961262 0.275637 0 1 19.7734 39.1604)" fill="white"/>
<rect width="26.3759" height="29.6121" rx="5.99983" transform="matrix(0.961262 0.275637 0 1 13 15.3546)" fill="#EF9341"/>
</svg>
