<svg width="503" height="272" viewBox="0 0 503 272" fill="none" xmlns="http://www.w3.org/2000/svg">
<path d="M-0.000289917 146.854L2.99673 125.875L48.4515 298.703L37.4625 287.714L-0.000289917 146.854Z" fill="#D9D9D9"/>
<path d="M3.49561 125.875L129.37 138.862L170.33 288.713L48.9504 297.205L3.49561 125.875Z" fill="white"/>
<path d="M88.912 0L188.313 26.9732L129.871 139.861L3.99637 125.875L88.912 0Z" fill="white"/>
<path d="M249.561 36.7881L179.362 197.601L179.36 197.605L158.933 245.753L128.906 140.414L192.56 21.0635L249.561 36.7881Z" fill="#4FB2E3" stroke="#4FB2E3" stroke-width="0.999007"/>
<path d="M179.324 197.801L201.302 147.352L205.797 286.713H168.834L158.345 248.251L179.324 197.801Z" fill="#0671DA"/>
<path d="M219.781 103.898L414.588 139.863L384.118 148.354L213.787 117.885L219.781 103.898Z" fill="#0D3C65"/>
<path d="M384.116 148.343L413.586 139.852L422.578 160.331L450.55 226.266L434.566 269.722L399.101 272.719L403.097 254.737L409.091 221.271L384.116 148.343Z" fill="#026C9A"/>
<path d="M243.257 50.9453L400.102 90.9056L414.088 140.356L219.781 104.392L243.257 50.9453Z" fill="#47A4DF"/>
<path d="M403.598 81.9141L432.569 89.9061L465.037 182.314L459.542 245.751L458.519 242.754L403.598 81.9141Z" fill="#00AEFA"/>
<path d="M469.531 171.326L440.56 90.9062L477.523 99.3978L502.998 174.323L500.001 259.738L460.54 262.735L469.531 171.326Z" fill="white"/>
</svg>
