<svg width="375" height="272" viewBox="0 0 375 272" fill="none" xmlns="http://www.w3.org/2000/svg">
<circle cx="238.061" cy="136.94" r="136.94" fill="#FAFAFA"/>
<circle cx="238.334" cy="136.939" r="97.8141" fill="white"/>
<circle cx="238.059" cy="137.211" r="53.4533" fill="#FAFAFA"/>
<path d="M229.358 145.094V138.844L226.05 132.962L225.682 128.918C223.844 127.325 220.756 123.184 223.109 119.36L223.729 107.898C223.801 106.56 224.533 105.345 225.682 104.656V97.9194C225.662 97.4736 225.682 97.1513 225.682 97.1513V97.9194C225.747 99.4029 226.248 102.253 229.358 99.1412C233.403 95.0941 248.181 93.0341 254.357 103.916L255.092 120.095C255.705 122.423 256.269 127.815 253.622 130.756L252.886 131.491L250.681 137.005L249.21 138.844V144.725L271.635 157.96C268.449 163.719 258.695 175.679 245.166 177.444C238.672 179.037 221.859 178.841 206.566 165.312L203.258 160.901L229.358 145.094Z" fill="#47A4DF"/>
<path d="M234.87 146.924L228.988 145.086L233.767 178.539L237.811 153.909L236.341 150.6L234.87 146.924Z" fill="white"/>
<path d="M242.224 150.6L242.959 146.924L249.209 145.086L245.9 173.025L244.062 177.069L241.121 153.174L242.224 150.6Z" fill="white"/>
<rect y="39.125" width="184.607" height="115.724" rx="5.51065" fill="#FAFAFA"/>
<rect y="39.125" width="184.607" height="24.2469" fill="white"/>
<circle cx="12.6736" cy="54.5564" r="3.30639" fill="#1C64F2"/>
<circle cx="22.0408" cy="54.5564" r="3.30639" fill="#1C64F2"/>
<circle cx="31.408" cy="54.5564" r="3.30639" fill="#1C64F2"/>
<circle cx="25.3511" cy="96.9839" r="14.3277" fill="#C3DDFD"/>
<g clipPath="url(#clip0_2202_7564)">
<path d="M27.1848 94.4169C27.1848 93.2477 26.7203 92.1264 25.8936 91.2996C25.0668 90.4728 23.9455 90.0084 22.7763 90.0084C21.6071 90.0084 20.4857 90.4728 19.659 91.2996C18.8322 92.1264 18.3678 93.2477 18.3678 94.4169C18.3678 95.5861 18.8322 96.7074 19.659 97.5342C20.4857 98.361 21.6071 98.8254 22.7763 98.8254C23.9455 98.8254 25.0668 98.361 25.8936 97.5342C26.7203 96.7074 27.1848 95.5861 27.1848 94.4169ZM28.2869 94.4169C28.2869 95.8784 27.7063 97.2801 26.6729 98.3135C25.6395 99.347 24.2378 99.9276 22.7763 99.9276C21.3148 99.9276 19.9131 99.347 18.8797 98.3135C17.8462 97.2801 17.2656 95.8784 17.2656 94.4169C17.2656 92.9554 17.8462 91.5537 18.8797 90.5203C19.9131 89.4868 21.3148 88.9062 22.7763 88.9062C24.2378 88.9062 25.6395 89.4868 26.6729 90.5203C27.7063 91.5537 28.2869 92.9554 28.2869 94.4169ZM31.4317 99.0312C31.4858 98.9807 31.5292 98.9199 31.5594 98.8523C31.5895 98.7847 31.6057 98.7117 31.607 98.6377C31.6083 98.5637 31.5947 98.4902 31.567 98.4216C31.5392 98.353 31.498 98.2907 31.4457 98.2383C31.3933 98.186 31.331 98.1448 31.2624 98.117C31.1938 98.0893 31.1203 98.0757 31.0463 98.077C30.9723 98.0783 30.8993 98.0945 30.8317 98.1246C30.7641 98.1548 30.7033 98.1982 30.6528 98.2523L28.1032 100.802L27.0232 99.7218C26.9727 99.6677 26.9119 99.6243 26.8443 99.5941C26.7767 99.564 26.7037 99.5478 26.6297 99.5465C26.5557 99.5452 26.4822 99.5588 26.4136 99.5865C26.345 99.6143 26.2827 99.6555 26.2303 99.7078C26.178 99.7602 26.1367 99.8225 26.109 99.8911C26.0813 99.9597 26.0677 100.033 26.069 100.107C26.0703 100.181 26.0865 100.254 26.1166 100.322C26.1468 100.389 26.1902 100.45 26.2443 100.501L27.7138 101.97C27.8172 102.073 27.9572 102.131 28.1032 102.131C28.2493 102.131 28.3893 102.073 28.4927 101.97L31.4317 99.0312ZM25.5536 92.3743C25.6568 92.4776 25.7148 92.6177 25.7148 92.7637C25.7148 92.9097 25.6568 93.0498 25.5536 93.1531L22.6146 96.0921C22.5113 96.1953 22.3712 96.2533 22.2252 96.2533C22.0792 96.2533 21.9391 96.1953 21.8358 96.0921L20.3663 94.6226C20.2689 94.5182 20.216 94.38 20.2185 94.2372C20.221 94.0945 20.2788 93.9583 20.3798 93.8573C20.4808 93.7563 20.617 93.6985 20.7597 93.696C20.9025 93.6935 21.0407 93.7465 21.1451 93.8438L22.2252 94.9239L24.7748 92.3743C24.8781 92.2711 25.0182 92.2131 25.1642 92.2131C25.3103 92.2131 25.4503 92.2711 25.5536 92.3743ZM23.6947 102.867V100.595C24.0695 100.54 24.4385 100.451 24.7969 100.328V102.867C24.7969 103.576 25.3729 104.152 26.0827 104.152H31.2259C31.567 104.152 31.894 104.017 32.1352 103.776C32.3763 103.535 32.5118 103.208 32.5118 102.867V97.7233C32.5118 97.3823 32.3763 97.0552 32.1352 96.8141C31.894 96.5729 31.567 96.4375 31.2259 96.4375H28.6874C28.8093 96.0828 28.8985 95.7155 28.9548 95.3353H31.2259C31.8593 95.3353 32.4667 95.5869 32.9145 96.0348C33.3623 96.4826 33.6139 97.09 33.6139 97.7233V102.867C33.6139 103.5 33.3623 104.107 32.9145 104.555C32.4667 105.003 31.8593 105.255 31.2259 105.255H26.0827C25.4493 105.255 24.842 105.003 24.3941 104.555C23.9463 104.107 23.6947 103.5 23.6947 102.867Z" fill="#1C64F2"/>
</g>
<rect x="55.1055" y="88.1719" width="85.9662" height="7.16385" rx="3.58193" fill="#76A9FA"/>
<rect x="55.1055" y="99.1953" width="57.3108" height="7.16385" rx="3.58193" fill="#76A9FA"/>
<path d="M54.3828 138.272C54.3828 137.391 54.6095 136.682 55.063 136.145C55.5165 135.605 56.1163 135.336 56.8626 135.336C57.5342 135.336 58.0924 135.518 58.5373 135.882C58.9822 136.247 59.2261 136.723 59.2692 137.312H58.5976C58.5775 136.893 58.411 136.563 58.0982 136.322C57.7882 136.078 57.3763 135.956 56.8626 135.956C56.2943 135.956 55.8523 136.158 55.5366 136.563C55.2208 136.967 55.063 137.537 55.063 138.272C55.063 139.012 55.2194 139.588 55.5323 139.998C55.848 140.406 56.2914 140.609 56.8626 140.609C57.3333 140.609 57.715 140.44 58.0077 140.101C58.3034 139.763 58.4713 139.306 58.5114 138.732H56.8066V138.16H59.2692V141.156H58.7913L58.7224 139.744C58.5531 140.203 58.3005 140.565 57.9647 140.829C57.6318 141.093 57.2486 141.225 56.8152 141.225C56.0862 141.225 55.4978 140.955 55.0501 140.416C54.6052 139.873 54.3828 139.159 54.3828 138.272ZM60.8492 139.365C60.8492 139.799 60.9496 140.12 61.1505 140.33C61.3514 140.539 61.6327 140.644 61.9944 140.644C62.3359 140.644 62.62 140.529 62.8468 140.3C63.0735 140.07 63.1869 139.777 63.1869 139.421V136.748H63.837V141.156H63.1869V140.45C63.0319 140.706 62.8281 140.905 62.5756 141.049C62.3259 141.192 62.0675 141.264 61.8006 141.264C61.3242 141.264 60.9396 141.109 60.6468 140.799C60.3541 140.486 60.2077 140.053 60.2077 139.499V136.748H60.8492V139.365ZM64.7712 136.748H65.4127V137.419C65.5562 137.181 65.7399 136.996 65.9637 136.864C66.1905 136.729 66.4215 136.662 66.6569 136.662H66.8592V137.338H66.6655C66.3125 137.338 66.0154 137.445 65.7743 137.66C65.5332 137.876 65.4127 138.15 65.4127 138.483V141.156H64.7712V136.748ZM71.1042 139.895C71.1042 140.411 71.1458 140.832 71.229 141.156H70.566C70.5172 140.961 70.4828 140.694 70.4627 140.355C70.2962 140.634 70.0752 140.853 69.7997 141.014C69.5241 141.175 69.2185 141.255 68.8827 141.255C68.4579 141.255 68.1092 141.132 67.8365 140.885C67.5638 140.638 67.4275 140.322 67.4275 139.938C67.4275 139.579 67.5395 139.294 67.7633 139.081C67.9872 138.869 68.2986 138.753 68.6975 138.732L69.9331 138.642C70.1226 138.631 70.256 138.592 70.3335 138.526C70.4139 138.457 70.4541 138.349 70.4541 138.203V138.186C70.4541 137.913 70.345 137.683 70.1269 137.497C69.9087 137.31 69.6433 137.217 69.3304 137.217C68.6158 137.217 68.2197 137.526 68.1422 138.143H67.462C67.4907 137.689 67.6743 137.327 68.013 137.058C68.3517 136.785 68.788 136.649 69.3218 136.649C69.8384 136.649 70.2646 136.798 70.6004 137.096C70.9363 137.395 71.1042 137.772 71.1042 138.229V139.895ZM68.0905 139.903C68.0905 140.139 68.1795 140.325 68.3574 140.463C68.5383 140.601 68.7779 140.67 69.0764 140.67C69.4725 140.67 69.8011 140.536 70.0623 140.269C70.3235 140.002 70.4541 139.667 70.4541 139.262V139.129L68.9171 139.223C68.366 139.258 68.0905 139.484 68.0905 139.903ZM75.1037 138.483C75.1037 138.067 75.0004 137.759 74.7937 137.561C74.5899 137.36 74.3 137.26 73.9241 137.26C73.571 137.26 73.2783 137.371 73.0458 137.592C72.8133 137.81 72.6971 138.09 72.6971 138.431V141.156H72.047V136.748H72.6971V137.437C72.8521 137.19 73.0602 136.996 73.3213 136.855C73.5825 136.712 73.848 136.64 74.1178 136.64C74.6057 136.64 74.9989 136.791 75.2974 137.092C75.5988 137.394 75.7495 137.814 75.7495 138.354V141.156H75.1037V138.483ZM78.6555 140.575V141.156H78.2594C77.9523 141.156 77.6983 141.066 77.4974 140.885C77.2993 140.701 77.2003 140.416 77.2003 140.028V137.32H76.3909V136.748H77.2003V135.603H77.8461V136.748H78.6555V137.32H77.8461V139.946C77.8461 140.182 77.8863 140.345 77.9666 140.437C78.047 140.529 78.1618 140.575 78.3111 140.575H78.6555ZM79.2065 138.935C79.2065 138.249 79.396 137.695 79.7748 137.273C80.1537 136.851 80.6545 136.64 81.2773 136.64C81.8944 136.64 82.391 136.851 82.7669 137.273C83.1458 137.695 83.3352 138.249 83.3352 138.935C83.3352 139.626 83.1458 140.185 82.7669 140.609C82.391 141.031 81.8944 141.242 81.2773 141.242C80.6545 141.242 80.1537 141.031 79.7748 140.609C79.396 140.188 79.2065 139.629 79.2065 138.935ZM82.6636 138.935C82.6636 138.401 82.5416 137.988 82.2977 137.695C82.0537 137.399 81.7136 137.251 81.2773 137.251C80.8325 137.251 80.4881 137.399 80.2441 137.695C80.0001 137.988 79.8782 138.401 79.8782 138.935C79.8782 139.474 80.0001 139.893 80.2441 140.192C80.4881 140.488 80.8325 140.635 81.2773 140.635C81.7136 140.635 82.0537 140.486 82.2977 140.188C82.5416 139.889 82.6636 139.471 82.6636 138.935ZM84.179 136.748H84.8205V137.419C84.964 137.181 85.1477 136.996 85.3716 136.864C85.5983 136.729 85.8294 136.662 86.0647 136.662H86.2671V137.338H86.0733C85.7203 137.338 85.4232 137.445 85.1822 137.66C84.9411 137.876 84.8205 138.15 84.8205 138.483V141.156H84.179V136.748ZM88.6349 136.748H89.3453L90.7402 140.424L92.0963 136.748H92.8196L91.0932 141.156H90.3613L88.6349 136.748ZM93.2587 138.935C93.2587 138.234 93.4424 137.681 93.8098 137.273C94.18 136.865 94.6809 136.662 95.3123 136.662C95.9121 136.662 96.4044 136.867 96.789 137.277C97.1736 137.685 97.3659 138.207 97.3659 138.844V139.12H93.9389C93.9648 139.616 94.0982 139.995 94.3393 140.256C94.5833 140.515 94.9263 140.644 95.3683 140.644C95.7213 140.644 96.0054 140.566 96.2207 140.411C96.4359 140.254 96.5708 140.037 96.6254 139.761H97.3142C97.2195 140.238 97.0085 140.601 96.6813 140.851C96.357 141.1 95.9193 141.225 95.3683 141.225C94.7196 141.225 94.2059 141.02 93.827 140.609C93.4481 140.199 93.2587 139.641 93.2587 138.935ZM95.3123 137.217C94.9076 137.217 94.589 137.333 94.3565 137.566C94.1269 137.795 93.9906 138.137 93.9475 138.59H96.6727C96.6383 138.171 96.4977 137.838 96.2508 137.592C96.004 137.342 95.6911 137.217 95.3123 137.217ZM98.214 136.748H98.8555V137.419C98.999 137.181 99.1827 136.996 99.4065 136.864C99.6333 136.729 99.8643 136.662 100.1 136.662H100.302V137.338H100.108C99.7553 137.338 99.4582 137.445 99.2171 137.66C98.976 137.876 98.8555 138.15 98.8555 138.483V141.156H98.214V136.748ZM101.017 135.4H101.783V136.132H101.017V135.4ZM101.081 136.748H101.723V141.156H101.081V136.748ZM102.48 137.32V136.748H103.174V136.115C103.174 135.727 103.286 135.442 103.509 135.258C103.733 135.074 104.013 134.983 104.349 134.983H104.745V135.559H104.401C104.214 135.559 104.072 135.603 103.974 135.689C103.877 135.775 103.828 135.934 103.828 136.167V136.748H104.745V137.32H103.828V141.156H103.174V137.32H102.48ZM105.442 135.4H106.209V136.132H105.442V135.4ZM105.507 136.748H106.148V141.156H105.507V136.748ZM106.992 138.935C106.992 138.249 107.182 137.695 107.561 137.273C107.939 136.851 108.437 136.64 109.054 136.64C109.611 136.64 110.073 136.801 110.441 137.122C110.808 137.441 111.01 137.863 111.048 138.388H110.376C110.365 138.035 110.238 137.758 109.997 137.557C109.759 137.353 109.445 137.251 109.054 137.251C108.61 137.251 108.267 137.398 108.026 137.691C107.784 137.98 107.664 138.395 107.664 138.935C107.664 139.474 107.784 139.893 108.026 140.192C108.27 140.488 108.612 140.635 109.054 140.635C109.442 140.635 109.755 140.542 109.993 140.355C110.231 140.166 110.359 139.906 110.376 139.576H111.048C110.999 140.087 110.792 140.493 110.428 140.795C110.066 141.093 109.608 141.242 109.054 141.242C108.437 141.242 107.939 141.031 107.561 140.609C107.182 140.185 106.992 139.626 106.992 138.935ZM115.482 139.895C115.482 140.411 115.524 140.832 115.607 141.156H114.944C114.895 140.961 114.861 140.694 114.841 140.355C114.674 140.634 114.453 140.853 114.178 141.014C113.902 141.175 113.596 141.255 113.261 141.255C112.836 141.255 112.487 141.132 112.214 140.885C111.942 140.638 111.806 140.322 111.806 139.938C111.806 139.579 111.917 139.294 112.141 139.081C112.365 138.869 112.677 138.753 113.076 138.732L114.311 138.642C114.501 138.631 114.634 138.592 114.712 138.526C114.792 138.457 114.832 138.349 114.832 138.203V138.186C114.832 137.913 114.723 137.683 114.505 137.497C114.287 137.31 114.021 137.217 113.708 137.217C112.994 137.217 112.598 137.526 112.52 138.143H111.84C111.869 137.689 112.052 137.327 112.391 137.058C112.73 136.785 113.166 136.649 113.7 136.649C114.216 136.649 114.643 136.798 114.978 137.096C115.314 137.395 115.482 137.772 115.482 138.229V139.895ZM112.469 139.903C112.469 140.139 112.557 140.325 112.735 140.463C112.916 140.601 113.156 140.67 113.454 140.67C113.85 140.67 114.179 140.536 114.44 140.269C114.701 140.002 114.832 139.667 114.832 139.262V139.129L113.295 139.223C112.744 139.258 112.469 139.484 112.469 139.903ZM118.392 140.575V141.156H117.996C117.689 141.156 117.435 141.066 117.234 140.885C117.036 140.701 116.937 140.416 116.937 140.028V137.32H116.128V136.748H116.937V135.603H117.583V136.748H118.392V137.32H117.583V139.946C117.583 140.182 117.623 140.345 117.704 140.437C117.784 140.529 117.899 140.575 118.048 140.575H118.392ZM119.09 135.4H119.856V136.132H119.09V135.4ZM119.154 136.748H119.796V141.156H119.154V136.748ZM120.64 138.935C120.64 138.249 120.829 137.695 121.208 137.273C121.587 136.851 122.088 136.64 122.711 136.64C123.328 136.64 123.824 136.851 124.2 137.273C124.579 137.695 124.768 138.249 124.768 138.935C124.768 139.626 124.579 140.185 124.2 140.609C123.824 141.031 123.328 141.242 122.711 141.242C122.088 141.242 121.587 141.031 121.208 140.609C120.829 140.188 120.64 139.629 120.64 138.935ZM124.097 138.935C124.097 138.401 123.975 137.988 123.731 137.695C123.487 137.399 123.147 137.251 122.711 137.251C122.266 137.251 121.921 137.399 121.677 137.695C121.433 137.988 121.311 138.401 121.311 138.935C121.311 139.474 121.433 139.893 121.677 140.192C121.921 140.488 122.266 140.635 122.711 140.635C123.147 140.635 123.487 140.486 123.731 140.188C123.975 139.889 124.097 139.471 124.097 138.935ZM128.669 138.483C128.669 138.067 128.566 137.759 128.359 137.561C128.155 137.36 127.865 137.26 127.489 137.26C127.136 137.26 126.844 137.371 126.611 137.592C126.379 137.81 126.262 138.09 126.262 138.431V141.156H125.612V136.748H126.262V137.437C126.417 137.19 126.625 136.996 126.887 136.855C127.148 136.712 127.413 136.64 127.683 136.64C128.171 136.64 128.564 136.791 128.863 137.092C129.164 137.394 129.315 137.814 129.315 138.354V141.156H128.669V138.483Z" fill="black"/>
<defs>
<clipPath id="clip0_2202_7564">
<rect width="17.6341" height="17.6341" fill="white" transform="translate(16.5312 88.1719)"/>
</clipPath>
</defs>
</svg>
