<svg width="89" height="83" viewBox="0 0 89 83" fill="none" xmlns="http://www.w3.org/2000/svg">
<g clipPath="url(#clip0_1627_2485)">
<path d="M71.5072 79.3318H11.4571C9.41817 79.3318 7.76562 77.689 7.76562 75.6621V3.66973C7.76718 1.64282 9.41972 0 11.4571 0H71.5072C73.5461 0 75.1986 1.64282 75.1986 3.66973V75.6621C75.1986 77.689 73.5461 79.3318 71.5072 79.3318Z" fill="#F9ED34"/>
<path d="M10.25 75.6622V4.27452C10.25 3.61123 10.7915 3.07288 11.4588 3.07288H71.5088C72.1761 3.07288 72.7176 3.61123 72.7176 4.27452V75.6622C72.7176 76.3255 72.1761 76.8638 71.5088 76.8638H11.4588C10.79 76.8638 10.25 76.3255 10.25 75.6622Z" fill="white"/>
<path d="M42.2819 4.16492C43.2186 4.16492 43.9779 3.41007 43.9779 2.47891C43.9779 1.54776 43.2186 0.792908 42.2819 0.792908C41.3453 0.792908 40.5859 1.54776 40.5859 2.47891C40.5859 3.41007 41.3453 4.16492 42.2819 4.16492Z" fill="#F9EE34"/>
<path d="M51.6573 5.55334H33.5027C32.2908 5.55334 31.3086 4.57691 31.3086 3.37218V3.07446H53.853V3.37218C53.853 4.57691 52.8708 5.55334 51.6573 5.55334Z" fill="white"/>
<path d="M86.0579 12.5931H76.9169C76.4639 12.5931 76.0977 13.0189 76.0977 13.5449V28.1482C76.0977 28.6742 76.4639 29.1 76.9169 29.1H87.262C87.7151 29.1 88.0813 28.6742 88.0813 28.1482V15.1337H85.9927L86.0579 12.5931Z" fill="#F9EE34"/>
<path d="M88.4644 15.0581H86.0547V12.5931L87.2914 13.8827L88.4644 15.0581Z" fill="#212734"/>
<path d="M81.5408 20.4775C83.1339 20.4775 84.4254 19.1936 84.4254 17.6099C84.4254 16.0262 83.1339 14.7423 81.5408 14.7423C79.9477 14.7423 78.6562 16.0262 78.6562 17.6099C78.6562 19.1936 79.9477 20.4775 81.5408 20.4775Z" fill="#374151"/>
<path d="M81.6511 18.3114C82.1833 18.3114 82.6147 17.8825 82.6147 17.3534C82.6147 16.8244 82.1833 16.3955 81.6511 16.3955C81.1189 16.3955 80.6875 16.8244 80.6875 17.3534C80.6875 17.8825 81.1189 18.3114 81.6511 18.3114Z" fill="white"/>
<path d="M77.625 22.412H85.5386" stroke="#1C64F2" stroke-width="0.821782"/>
<path d="M77.8594 23.8991H83.8116" stroke="#1C64F2" stroke-width="0.821782"/>
<path d="M77.8242 25.1542H85.8371" stroke="#1C64F2" stroke-width="0.821782"/>
<path d="M77.9922 26.476H83.1127" stroke="#1C64F2" stroke-width="0.821782"/>
<rect x="15.2773" y="65.8669" width="15.672" height="3.70212" fill="#D9D9D9"/>
<rect x="15.2773" y="20.8246" width="24.9821" height="3.70212" fill="#D9D9D9"/>
<rect x="15.2773" y="27.3034" width="24.9821" height="3.70212" fill="#D9D9D9"/>
<rect x="15.2773" y="33.9362" width="24.9821" height="3.70212" fill="#D9D9D9"/>
<rect x="32.5" y="65.8669" width="15.672" height="3.70212" fill="#D9D9D9"/>
<rect x="42.7422" y="20.8246" width="24.9821" height="3.70212" fill="#D9D9D9"/>
<rect x="42.7422" y="27.3034" width="24.9821" height="3.70212" fill="#D9D9D9"/>
<rect x="42.7422" y="33.9362" width="24.9821" height="3.70212" fill="#D9D9D9"/>
<path d="M15.9961 61.0847H1.80754C1.10462 61.0847 0.535156 61.6508 0.535156 62.3496V81.7364C0.535156 82.4352 1.10462 83.0013 1.80754 83.0013H17.8674C18.5704 83.0013 19.1398 82.4352 19.1398 81.7364V64.4567H15.8968L15.9961 61.0847Z" fill="#F9EE34"/>
<path d="M19.1373 64.4783H15.8984L15.9977 61.0847L17.7605 62.9358L19.1373 64.4783Z" fill="#212734"/>
<path d="M3.77734 76.8511H16.2963" stroke="#181818" stroke-width="0.821782" stroke-miterlimit="10"/>
<path d="M3.77734 78.3895H16.2963" stroke="#181818" stroke-width="0.821782" stroke-miterlimit="10"/>
<path d="M3.77734 80.2698H14.9463" stroke="#181818" stroke-width="0.821782" stroke-miterlimit="10"/>
<path d="M9.93488 68.7209C11.1329 68.7209 12.1041 67.7554 12.1041 66.5644C12.1041 65.3734 11.1329 64.408 9.93488 64.408C8.73683 64.408 7.76562 65.3734 7.76562 66.5644C7.76562 67.7554 8.73683 68.7209 9.93488 68.7209Z" fill="#374151"/>
<path d="M13.7021 74.2241H6.26953V73.5438C6.26953 71.7899 7.31071 70.198 8.92756 69.5008C8.95549 69.4884 8.98342 69.4761 9.0129 69.4653L9.81047 71.2747L10.8579 69.4406C10.968 69.4792 11.0782 69.5239 11.1853 69.5748C12.74 70.2906 13.7005 71.8748 13.7005 73.5762L13.7021 74.2241Z" fill="#374151"/>
</g>
<defs>
<clipPath id="clip0_1627_2485">
<rect width="87.9307" height="83" fill="white" transform="translate(0.535156)"/>
</clipPath>
</defs>
</svg>
