<svg width="64" height="64" viewBox="0 0 64 64" fill="none" xmlns="http://www.w3.org/2000/svg">
<rect width="64" height="64" rx="32" fill="black"/>
<path d="M31.0124 12.4551C31.5258 12.157 32.1088 12 32.7024 12H32.9679C34.1472 12 35.3022 12.3356 36.2979 12.9677L48.2114 20.5301C49.1511 21.1267 49.8687 22.0157 50.2535 23.0601C50.4604 23.6219 50.5664 24.2158 50.5664 24.8144V38.6858C50.5664 39.8573 50.2352 41.005 49.6109 41.9964L48.6782 43.4778C48.4752 43.8002 48.1743 44.049 47.8196 44.1878C46.651 44.6451 45.3884 43.7833 45.3884 42.5284V29.102C45.3884 26.9943 44.3199 25.0303 42.5503 23.8853L28.8463 15.018C28.3597 14.7031 28.377 13.9853 28.8783 13.6942L31.0124 12.4551Z" fill="#060606"/>
<path d="M24.4347 16.66C25.6927 16.66 26.9255 17.0125 27.9933 17.6776L40.2221 25.2937C40.8101 25.66 41.3026 26.1608 41.6591 26.7548C42.0666 27.434 42.2818 28.2111 42.2818 29.0031V43.9265C42.2818 44.6417 42.1425 45.35 41.8717 46.012C41.3839 47.2044 40.4935 48.1881 39.3555 48.792L35.337 50.9242C34.9626 51.1229 34.5674 51.2794 34.1585 51.3909C32.7262 51.7816 31.1982 51.6012 29.8962 50.888L17.7683 44.244C17.284 43.9787 16.8342 43.6548 16.429 43.2796L15.8756 42.7672C14.3993 41.4002 13.6118 39.4445 13.729 37.436L14.3886 26.128C14.4294 25.4298 14.5786 24.7422 14.8311 24.09L15.3263 22.8108C15.7693 21.6663 16.5168 20.6647 17.4879 19.9143L19.8811 18.065C21.0598 17.1542 22.5074 16.66 23.997 16.66H24.4347Z" fill="#0F0F0F"/>
<path d="M21.9854 23.0359C22.9297 22.4548 24.1122 22.421 25.0882 22.9472L36.7151 29.2167V38.4076V41.0624C36.7151 43.0389 35.466 44.7995 33.6005 45.4524C32.2935 45.9099 30.8506 45.7611 29.6644 45.0467L21.1674 39.9292C20.4976 39.5258 19.944 38.9555 19.5607 38.274C19.1803 37.5978 18.9805 36.835 18.9805 36.0591V27.5559C18.9805 26.7763 19.1712 26.0086 19.5359 25.3196C19.935 24.5657 20.5286 23.9324 21.2551 23.4853L21.9854 23.0359Z" fill="#121212"/>
<path d="M23.123 25.9806L27.8942 28.846V34.9074L32.4434 37.4421V42.2913L24.6972 37.8369C24.2466 37.5778 23.8674 37.2109 23.5937 36.769C23.286 36.2725 23.123 35.7 23.123 35.1159V25.9806Z" fill="#FACA15"/>
</svg>
