<svg width="105" height="33" viewBox="0 0 105 33" fill="none" xmlns="http://www.w3.org/2000/svg">
<path d="M1.72365 17.2072C0.144783 12.8311 -0.357679 8.04788 0.250455 3.42835C3.2963 1.95619 6.56282 0.912933 9.91739 0.394932C16.7333 -0.657646 23.7708 0.406328 29.9402 3.43664C30.0169 4.13386 30.1101 4.83317 30.1536 5.53454C30.8332 16.426 25.5869 26.4784 16.4608 32.2955C16.3862 32.3038 16.3458 32.1805 16.3157 32.1266C14.2955 28.4447 14.7441 24.1246 17.2678 20.8311C20.1956 17.0103 23.9894 15.1756 28.7333 14.6389C28.7643 14.6358 28.8731 14.6265 28.8711 14.583C26.7794 13.4879 24.5437 12.6581 22.2241 12.1764C15.1938 10.7156 8.02047 12.4271 2.35354 16.7472C2.15152 16.9005 1.95157 17.1036 1.72365 17.2061V17.2072ZM9.6874 6.14371L9.95883 4.66844C9.77753 4.55137 9.58484 4.82695 9.49678 4.83213C9.43254 4.83524 8.98499 4.64565 8.84824 4.61561C7.86196 4.39805 6.35976 4.82281 6.37634 6.04011C6.3898 7.05332 7.4372 7.08647 8.09817 7.42317C8.75914 7.75987 8.64518 8.54931 7.98732 8.7534C7.21032 8.99582 6.6084 8.5348 6.35562 7.82307C6.33075 7.75262 6.2717 7.44389 6.25616 7.43042C6.24684 7.42214 6.0386 7.42006 6.01063 7.42628C5.93189 7.44493 5.73712 8.8311 5.66253 9.00722C5.93189 9.06316 6.00959 8.92848 6.2085 8.80313C7.20307 9.40297 9.29786 9.19888 9.59209 7.88109C9.87077 6.63063 8.66901 6.57469 7.89822 6.19137C7.086 5.78732 7.45171 4.88807 8.27119 4.86217C9.00882 4.83835 9.34241 5.49932 9.3911 6.14578C9.44394 6.13646 9.67186 6.16029 9.68844 6.14371H9.6874ZM16.8783 4.65394C16.6493 4.59696 16.6089 4.72128 16.4711 4.79898C16.353 4.86632 16.1013 4.71092 15.9531 4.66844C14.9948 4.39597 13.4439 4.64876 13.301 5.86399C13.1704 6.97044 14.1774 7.05021 14.9078 7.38277C15.7843 7.78163 15.5128 8.72439 14.6561 8.79898C14.0552 8.85078 13.6118 8.57935 13.3517 8.0427C13.2927 7.92149 13.1912 7.49155 13.1642 7.45529C13.1331 7.41385 12.9767 7.41385 12.9291 7.43042C12.8524 7.45632 12.6151 8.82281 12.582 9.00722C12.8317 9.05695 12.9208 8.93159 13.099 8.80313C14.1049 9.42162 16.351 9.17609 16.5167 7.76712C16.6473 6.66378 15.6952 6.57779 14.9389 6.24938C13.8791 5.78836 14.3877 4.77515 15.3409 4.86425C15.8392 4.90983 16.0961 5.33148 16.2287 5.76557C16.2494 5.83291 16.2981 6.13024 16.3137 6.14267C16.324 6.15096 16.5592 6.152 16.5747 6.14267L16.8773 4.65601L16.8783 4.65394ZM20.9653 4.65394C20.7364 4.59696 20.696 4.72128 20.5582 4.79898C20.4401 4.86632 20.1883 4.71092 20.0402 4.66844C19.0819 4.39597 17.531 4.64876 17.388 5.86399C17.2575 6.97044 18.2645 7.05021 18.9948 7.38277C19.8713 7.78163 19.5999 8.72439 18.7431 8.79898C18.1422 8.85078 17.6988 8.57935 17.4388 8.0427C17.3797 7.92149 17.2782 7.49155 17.2513 7.45529C17.2202 7.41385 17.0637 7.41385 17.0161 7.43042C16.9394 7.45632 16.7022 8.82281 16.669 9.00722C16.9187 9.05695 17.0078 8.93159 17.186 8.80313C18.1919 9.42162 20.438 9.17609 20.6038 7.76712C20.7343 6.66378 19.7822 6.57779 19.0259 6.24938C17.9661 5.78836 18.4748 4.77515 19.4279 4.86425C19.9262 4.90983 20.1831 5.33148 20.3158 5.76557C20.3365 5.83291 20.3852 6.13024 20.4007 6.14267C20.4111 6.15096 20.6462 6.152 20.6618 6.14267L20.9643 4.65601L20.9653 4.65394ZM24.0536 4.65394H21.7568C21.7071 4.65394 21.6553 4.83938 21.6522 4.89222C21.8615 4.94402 22.1547 4.95127 22.2147 5.20406C21.9537 6.31983 21.7361 7.45218 21.4191 8.55138C21.3714 8.78344 20.8099 8.73061 20.7592 8.77205C20.7436 8.78448 20.7219 8.96682 20.726 9.00722H24.7239L25.1114 7.60551C24.8379 7.55682 24.8669 7.66663 24.7353 7.84068C24.553 8.08311 24.2132 8.54723 23.9345 8.65084C23.6962 8.73889 22.8944 8.79484 22.683 8.6757C22.4851 8.56485 22.6405 8.12144 22.6799 7.93289C22.8705 7.00463 23.1181 6.08258 23.3367 5.16054C23.4072 4.88393 23.9262 4.9751 24.0381 4.87771C24.0764 4.84353 24.121 4.67362 24.0536 4.65394ZM13.0896 4.68398H10.7182C10.682 4.68398 10.6498 4.85492 10.6436 4.89222C10.855 4.95023 11.2601 4.9637 11.2124 5.26622C10.9389 6.27114 10.8032 7.38588 10.5048 8.3763C10.4105 8.6902 10.2831 8.72543 9.96919 8.7648C9.74645 8.79277 9.7247 8.70056 9.71952 9.00722H12.1065C12.1189 9.00722 12.1531 8.79795 12.1655 8.76894C11.461 8.72128 11.5563 8.58246 11.6734 8.02302C11.8692 7.08544 12.1199 6.15614 12.3302 5.22063C12.4919 4.81866 12.9436 4.99685 13.0534 4.88497C13.072 4.86632 13.1 4.69331 13.0907 4.68295L13.0896 4.68398Z" fill="#030302"/>
<path d="M9.68704 6.14376C9.67046 6.1593 9.44358 6.13547 9.3897 6.14583C9.34101 5.49936 9.00742 4.83839 8.26979 4.86222C7.45134 4.88812 7.0846 5.78737 7.89683 6.19141C8.70905 6.59546 9.86937 6.63172 9.59069 7.88114C9.29646 9.19893 7.20167 9.40302 6.2071 8.80318C6.00819 8.92853 5.93049 9.06321 5.66113 9.00727C5.73572 8.83011 5.92946 7.44394 6.00923 7.42633C6.0372 7.42011 6.24544 7.42219 6.25476 7.43047C6.2703 7.44394 6.32935 7.75267 6.35422 7.82312C6.607 8.53485 7.20892 8.99484 7.98592 8.75345C8.64378 8.54832 8.74738 7.75371 8.09677 7.42322C7.44616 7.09274 6.38841 7.05337 6.37494 6.04016C6.35836 4.82286 7.86057 4.39809 8.84684 4.61565C8.98256 4.6457 9.43011 4.83632 9.49538 4.83218C9.58344 4.827 9.77613 4.55142 9.95743 4.66849L9.686 6.14376H9.68704Z" fill="white"/>
<path d="M16.8783 4.65405L16.5758 6.14072C16.5592 6.15108 16.324 6.15004 16.3147 6.14072C16.3002 6.12829 16.2505 5.83095 16.2297 5.76361C16.0971 5.32953 15.8392 4.90891 15.3419 4.86229C14.3888 4.77423 13.8801 5.78641 14.9399 6.24743C15.6952 6.57688 16.6472 6.66183 16.5177 7.76517C16.352 9.17517 14.1059 9.4207 13.1 8.80117C12.9218 8.92964 12.8337 9.05499 12.583 9.00526C12.6162 8.82086 12.8534 7.4554 12.9301 7.42847C12.9777 7.41189 13.1342 7.41189 13.1652 7.45333C13.1922 7.48959 13.2937 7.91953 13.3528 8.04075C13.6128 8.5774 14.0562 8.84883 14.6571 8.79703C15.5139 8.72244 15.7853 7.77967 14.9088 7.38081C14.1785 7.04929 13.1725 6.96952 13.302 5.86203C13.445 4.64577 14.9959 4.39298 15.9542 4.66649C16.1023 4.70896 16.3541 4.86436 16.4722 4.79702C16.6099 4.71932 16.6493 4.595 16.8793 4.65198L16.8783 4.65405Z" fill="white"/>
<path d="M20.9652 4.65405L20.6627 6.14072C20.6461 6.15108 20.4109 6.15004 20.4016 6.14072C20.3871 6.12829 20.3374 5.83095 20.3167 5.76361C20.184 5.32953 19.9261 4.90891 19.4288 4.86229C18.4757 4.77423 17.967 5.78641 19.0268 6.24743C19.7821 6.57688 20.7342 6.66183 20.6047 7.76517C20.4389 9.17517 18.1928 9.4207 17.1869 8.80117C17.0087 8.92964 16.9206 9.05499 16.6699 9.00526C16.7031 8.82086 16.9403 7.4554 17.017 7.42847C17.0646 7.41189 17.2211 7.41189 17.2522 7.45333C17.2791 7.48959 17.3806 7.91953 17.4397 8.04075C17.6997 8.5774 18.1431 8.84883 18.744 8.79703C19.6008 8.72244 19.8722 7.77967 18.9957 7.38081C18.2654 7.04929 17.2594 6.96952 17.3889 5.86203C17.5319 4.64577 19.0828 4.39298 20.0411 4.66649C20.1892 4.70896 20.441 4.86436 20.5591 4.79702C20.6969 4.71932 20.7362 4.595 20.9662 4.65198L20.9652 4.65405Z" fill="white"/>
<path d="M24.0537 4.65393C24.1221 4.67258 24.0776 4.84352 24.0382 4.87771C23.9273 4.97613 23.4073 4.88392 23.3368 5.16054C23.1182 6.08258 22.8706 7.00462 22.68 7.93288C22.6417 8.12143 22.4863 8.5638 22.6831 8.67569C22.8945 8.79483 23.6953 8.73889 23.9346 8.65083C24.2133 8.54826 24.5531 8.0831 24.7354 7.84068C24.867 7.66663 24.838 7.55681 25.1115 7.6055L24.724 9.00721H20.7261C20.722 8.96681 20.7437 8.78447 20.7593 8.77204C20.809 8.73164 21.3705 8.78344 21.4192 8.55137C21.7362 7.45217 21.9538 6.31982 22.2148 5.20405C22.1547 4.95126 21.8605 4.94401 21.6523 4.89221C21.6554 4.84041 21.7062 4.65393 21.7569 4.65393H24.0537Z" fill="white"/>
<path d="M13.0889 4.68396C13.0993 4.69432 13.0703 4.86733 13.0516 4.88598C12.9408 4.99683 12.4891 4.81968 12.3285 5.22165C12.1182 6.15612 11.8664 7.08541 11.6717 8.02403C11.5556 8.58347 11.4603 8.7223 12.1638 8.76995C12.1513 8.79896 12.1161 9.00823 12.1047 9.00823H9.71777C9.72399 8.70158 9.74471 8.79482 9.96745 8.76581C10.2814 8.72541 10.4088 8.69122 10.5031 8.37731C10.8014 7.38689 10.9371 6.27215 11.2107 5.26723C11.2583 4.96472 10.8532 4.95125 10.6419 4.89323C10.6481 4.85594 10.6802 4.685 10.7165 4.685H13.0879L13.0889 4.68396Z" fill="white"/>
<path d="M1.72363 17.2072C1.95155 17.1047 2.1515 16.9016 2.35352 16.7483C8.02045 12.4281 15.1937 10.7167 22.224 12.1774C24.5437 12.6592 26.7783 13.489 28.871 14.5841C28.8731 14.6276 28.7643 14.6359 28.7333 14.64C23.9894 15.1756 20.1956 17.0104 17.2678 20.8322C14.7441 24.1256 14.2966 28.4447 16.3157 32.1277C16.3447 32.1816 16.3862 32.3049 16.4608 32.2966C16.092 32.5318 15.7231 32.7649 15.3481 32.9897L15.2383 33C14.1743 32.396 13.1393 31.7372 12.1562 31.0088C11.9096 30.8265 11.3771 30.4753 11.1948 30.2702C11.03 30.0858 10.7078 29.3088 10.6001 29.0456C8.81611 24.6581 10.1505 20.5317 13.9464 17.8412L15.0591 17.1202C14.2044 16.8125 13.3362 16.5442 12.44 16.3836C9.16524 15.7993 5.95467 16.4085 3.15953 18.1811C2.88085 18.3582 2.62495 18.5685 2.33798 18.7312C2.11524 18.2339 1.91011 17.7231 1.7257 17.2093L1.72363 17.2072ZM23.4113 13.8381C20.7291 13.3067 17.9319 13.3471 15.2849 14.0484L14.0749 14.4038C14.8239 14.4328 15.5729 14.409 16.3126 14.5374C17.4802 14.7405 18.6105 15.2378 19.5491 15.9537C20.1489 15.0699 21.044 14.4235 22.0697 14.1199L23.4123 13.8371L23.4113 13.8381Z" fill="#CFAD1F"/>
<path d="M2.58829 19.2346C3.0203 19.0005 3.43263 18.728 3.87086 18.5032C6.87526 16.9627 10.2671 16.5835 13.5627 17.347C13.6155 17.3595 13.6745 17.3315 13.6569 17.4154C13.2985 17.692 12.9234 17.95 12.5826 18.2504C11.8553 18.7508 11.154 19.4118 10.6018 20.1018C8.75457 22.41 8.43237 25.316 9.68905 28.0002C9.82269 28.4882 10.0226 28.9627 10.1957 29.431C10.1905 29.4382 10.1086 29.3843 10.0921 29.3709C9.85584 29.1896 9.51396 28.8435 9.28501 28.627C6.77684 26.2421 4.58881 23.4201 3.04931 20.309C2.92602 20.0603 2.67117 19.5941 2.60175 19.3527C2.59139 19.3154 2.58 19.2719 2.58725 19.2336L2.58829 19.2346Z" fill="#030302"/>
<path d="M12.5827 18.2514C9.71505 20.7855 8.66972 24.2799 9.68915 28.0012C8.43247 25.3169 8.75467 22.411 10.6019 20.1027C11.1541 19.4117 11.8554 18.7518 12.5827 18.2514Z" fill="#CFAD1F"/>
<path d="M2.58893 19.2347C2.61068 19.129 3.74718 18.4173 3.92226 18.3168C6.51227 16.8291 9.42862 16.3681 12.375 16.8933C12.8681 16.9814 13.352 17.1129 13.8358 17.2373C13.8741 17.2787 13.6897 17.3906 13.6565 17.4155C13.6742 17.3315 13.6151 17.3595 13.5623 17.3471C10.2667 16.5835 6.87487 16.9627 3.87046 18.5033C3.43223 18.7281 3.02094 19.0005 2.58789 19.2347H2.58893Z" fill="#CFAD1F"/>
<path d="M23.4117 13.8382L22.0691 14.121C21.0424 14.4245 20.1483 15.071 19.5485 15.9547C18.6098 15.2378 17.4796 14.7415 16.312 14.5385C15.5723 14.41 14.8232 14.4339 14.0742 14.4048L15.2843 14.0495C17.9313 13.3481 20.7295 13.3077 23.4107 13.8392L23.4117 13.8382ZM21.6816 13.8982C20.0426 13.7356 18.3767 13.7698 16.7544 14.0567L16.1338 14.1966C17.3387 14.3634 18.4824 14.8317 19.4863 15.5072C19.9038 14.985 20.4187 14.5447 21.0061 14.2225L21.6826 13.9003L21.6816 13.8982Z" fill="#030302"/>
<path d="M21.6816 13.8982L21.0051 14.2204C20.4177 14.5426 19.9028 14.9829 19.4853 15.505C18.4814 14.8296 17.3387 14.3613 16.1328 14.1945L16.7534 14.0546C18.3758 13.7687 20.0417 13.7335 21.6806 13.8961L21.6816 13.8982Z" fill="#EF3C23"/>
<path d="M58.6266 13.5858H55.7523C55.6551 12.0723 54.6137 11.3155 52.628 11.3155C51.8366 11.3155 51.2048 11.4752 50.7327 11.7946C50.2744 12.1139 50.0453 12.5444 50.0453 13.0859C50.0453 13.6136 50.2397 14.0093 50.6285 14.2731C51.0173 14.537 51.7671 14.773 52.878 14.9813L55.2108 15.4187C56.5854 15.6825 57.5852 16.1338 58.2101 16.7725C58.8349 17.4113 59.1473 18.3138 59.1473 19.4802C59.1473 21.0771 58.5364 22.2921 57.3144 23.1252C56.2591 23.8611 54.8358 24.2291 53.0446 24.2291C51.0034 24.2291 49.4482 23.757 48.379 22.8128C47.4487 21.9935 46.9419 20.8549 46.8586 19.3969H49.837C49.9481 20.9799 51.0659 21.7714 53.1904 21.7714C54.1346 21.7714 54.8706 21.6047 55.3982 21.2715C55.9398 20.9243 56.2105 20.4522 56.2105 19.8551C56.2105 19.272 55.9953 18.8207 55.5648 18.5013C55.1483 18.1819 54.4262 17.925 53.3987 17.7307L51.3158 17.3349C49.8023 17.0572 48.7192 16.6198 48.0666 16.0227C47.4279 15.4118 47.1085 14.537 47.1085 13.3983C47.1085 11.857 47.6709 10.6907 48.7956 9.89917C49.7676 9.20489 51.0867 8.85775 52.753 8.85775C54.7664 8.85775 56.28 9.31598 57.2936 10.2324C58.1684 11.0378 58.6127 12.1556 58.6266 13.5858ZM64.0685 9.08686V24H61.0068V9.08686H64.0685ZM77.5642 13.5858H74.6899C74.5927 12.0723 73.5513 11.3155 71.5656 11.3155C70.7741 11.3155 70.1423 11.4752 69.6702 11.7946C69.212 12.1139 68.9829 12.5444 68.9829 13.0859C68.9829 13.6136 69.1773 14.0093 69.5661 14.2731C69.9549 14.537 70.7047 14.773 71.8156 14.9813L74.1483 15.4187C75.523 15.6825 76.5228 16.1338 77.1476 16.7725C77.7725 17.4113 78.0849 18.3138 78.0849 19.4802C78.0849 21.0771 77.4739 22.2921 76.252 23.1252C75.1967 23.8611 73.7734 24.2291 71.9822 24.2291C69.941 24.2291 68.3858 23.757 67.3166 22.8128C66.3863 21.9935 65.8795 20.8549 65.7961 19.3969H68.7746C68.8857 20.9799 70.0035 21.7714 72.128 21.7714C73.0722 21.7714 73.8081 21.6047 74.3358 21.2715C74.8773 20.9243 75.1481 20.4522 75.1481 19.8551C75.1481 19.272 74.9329 18.8207 74.5024 18.5013C74.0858 18.1819 73.3638 17.925 72.3363 17.7307L70.2534 17.3349C68.7399 17.0572 67.6568 16.6198 67.0042 16.0227C66.3655 15.4118 66.0461 14.537 66.0461 13.3983C66.0461 11.857 66.6085 10.6907 67.7332 9.89917C68.7052 9.20489 70.0243 8.85775 71.6906 8.85775C73.704 8.85775 75.2175 9.31598 76.2312 10.2324C77.106 11.0378 77.5503 12.1556 77.5642 13.5858ZM90.7959 13.5858H87.9216C87.8244 12.0723 86.783 11.3155 84.7973 11.3155C84.0059 11.3155 83.3741 11.4752 82.902 11.7946C82.4437 12.1139 82.2146 12.5444 82.2146 13.0859C82.2146 13.6136 82.409 14.0093 82.7978 14.2731C83.1866 14.537 83.9364 14.773 85.0473 14.9813L87.3801 15.4187C88.7547 15.6825 89.7545 16.1338 90.3794 16.7725C91.0042 17.4113 91.3166 18.3138 91.3166 19.4802C91.3166 21.0771 90.7057 22.2921 89.4837 23.1252C88.4284 23.8611 87.0052 24.2291 85.2139 24.2291C83.1727 24.2291 81.6175 23.757 80.5483 22.8128C79.618 21.9935 79.1112 20.8549 79.0279 19.3969H82.0063C82.1174 20.9799 83.2352 21.7714 85.3597 21.7714C86.3039 21.7714 87.0399 21.6047 87.5675 21.2715C88.1091 20.9243 88.3798 20.4522 88.3798 19.8551C88.3798 19.272 88.1646 18.8207 87.7341 18.5013C87.3176 18.1819 86.5955 17.925 85.568 17.7307L83.4852 17.3349C81.9716 17.0572 80.8885 16.6198 80.2359 16.0227C79.5972 15.4118 79.2778 14.537 79.2778 13.3983C79.2778 11.857 79.8402 10.6907 80.9649 9.89917C81.9369 9.20489 83.256 8.85775 84.9223 8.85775C86.9357 8.85775 88.4493 9.31598 89.4629 10.2324C90.3377 11.0378 90.782 12.1556 90.7959 13.5858ZM96.2378 9.08686V21.4381H103.382V24H93.1761V9.08686H96.2378Z" fill="url(#paint0_linear_1274_265)"/>
<defs>
<linearGradient id="paint0_linear_1274_265" x1="35.5004" y1="62.5" x2="87.3329" y2="1.16713" gradientUnits="userSpaceOnUse">
<stop/>
<stop offset="1" stopColor="#CFAD1F"/>
</linearGradient>
</defs>
</svg>
