<svg width="499" height="152" viewBox="0 0 499 152" fill="none" xmlns="http://www.w3.org/2000/svg">
<g clip-path="url(#clip0_4901_9331)">
<path d="M0 10C0 4.47715 4.47715 0 10 0H489C494.523 0 499 4.47715 499 10V142C499 147.523 494.523 152 489 152H10C4.47716 152 0 147.523 0 142V10Z" fill="#1F2A37"/>
<path d="M334.811 54.002H336.891L339.615 64.7246L342.916 54.002H345.25L348.492 64.7246L351.314 54.002H353.395L349.615 67H347.311L344.059 56.2773L340.816 67H338.453L334.811 54.002ZM362.369 64.041C362.369 65.3431 362.483 66.3294 362.711 67H360.729C360.592 66.5052 360.504 65.9258 360.465 65.2617C360.107 65.8737 359.625 66.3555 359.02 66.707C358.421 67.0521 357.757 67.2246 357.027 67.2246C356.057 67.2246 355.26 66.9414 354.635 66.375C354.016 65.8021 353.707 65.0697 353.707 64.1777C353.707 63.3379 353.961 62.6738 354.469 62.1855C354.983 61.6908 355.709 61.4141 356.646 61.3555L359.371 61.1992C359.762 61.1732 360.038 61.0885 360.201 60.9453C360.364 60.8021 360.445 60.5807 360.445 60.2812V60.2422C360.445 59.7018 360.227 59.2428 359.791 58.8652C359.355 58.4876 358.821 58.2988 358.189 58.2988C356.738 58.2988 355.943 58.9271 355.807 60.1836H353.785C353.857 59.1419 354.29 58.3118 355.084 57.6934C355.885 57.0684 356.92 56.7559 358.189 56.7559C359.407 56.7559 360.406 57.1042 361.188 57.8008C361.975 58.4909 362.369 59.3698 362.369 60.4375V64.041ZM355.689 64.041C355.689 64.5098 355.868 64.8841 356.227 65.1641C356.585 65.444 357.063 65.584 357.662 65.584C358.456 65.584 359.117 65.3203 359.645 64.793C360.178 64.2656 360.445 63.6016 360.445 62.8008V62.4785L357.35 62.6641C356.243 62.7422 355.689 63.2012 355.689 64.041ZM364.43 52.9961H366.373V67H364.43V52.9961ZM368.414 52.9961H370.357V67H368.414V52.9961ZM372.203 61.9609C372.203 60.3724 372.63 59.1159 373.482 58.1914C374.335 57.2669 375.494 56.8047 376.959 56.8047C378.372 56.8047 379.531 57.2799 380.436 58.2305C381.347 59.181 381.803 60.3919 381.803 61.8633V62.4785H374.225C374.296 63.4811 374.573 64.2428 375.055 64.7637C375.543 65.278 376.227 65.5352 377.105 65.5352C377.802 65.5352 378.368 65.3789 378.805 65.0664C379.241 64.7539 379.514 64.3177 379.625 63.7578H381.686C381.477 64.8776 380.986 65.724 380.211 66.2969C379.436 66.8698 378.395 67.1562 377.086 67.1562C375.589 67.1562 374.4 66.6908 373.521 65.7598C372.643 64.8288 372.203 63.5625 372.203 61.9609ZM376.979 58.3379C375.377 58.3379 374.465 59.2461 374.244 61.0625H379.723C379.645 60.2292 379.358 59.5684 378.863 59.0801C378.368 58.5853 377.74 58.3379 376.979 58.3379ZM388.131 65.3008V67H387.145C386.344 67 385.693 66.7721 385.191 66.3164C384.697 65.8542 384.449 65.1608 384.449 64.2363V58.6211H382.682V57H384.449V54.4023H386.363V57H388.131V58.6211H386.363V63.9824C386.363 64.4707 386.448 64.8125 386.617 65.0078C386.793 65.2031 387.044 65.3008 387.369 65.3008H388.131Z" fill="#F9FAFB"/>
<path d="M341.338 91.9014V93.1729H338.679V101H337.339V93.1729H334.68V91.9014H341.338ZM341.42 97.4727C341.42 96.3743 341.728 95.4902 342.343 94.8203C342.963 94.1504 343.781 93.8154 344.797 93.8154C345.809 93.8154 346.622 94.1504 347.237 94.8203C347.857 95.4902 348.167 96.3743 348.167 97.4727C348.167 98.5801 347.857 99.471 347.237 100.146C346.618 100.82 345.804 101.157 344.797 101.157C343.781 101.157 342.963 100.82 342.343 100.146C341.728 99.471 341.42 98.5801 341.42 97.4727ZM346.766 97.4727C346.766 96.6979 346.592 96.0964 346.246 95.668C345.904 95.2396 345.421 95.0254 344.797 95.0254C344.173 95.0254 343.687 95.2396 343.341 95.668C342.994 96.0964 342.821 96.6979 342.821 97.4727C342.821 98.2565 342.994 98.8649 343.341 99.2979C343.687 99.7308 344.173 99.9473 344.797 99.9473C345.421 99.9473 345.904 99.7308 346.246 99.2979C346.592 98.8649 346.766 98.2565 346.766 97.4727ZM349.459 94H350.819V95.2305C351.07 94.7747 351.394 94.4261 351.79 94.1846C352.187 93.9385 352.642 93.8154 353.157 93.8154C354.055 93.8154 354.78 94.1504 355.331 94.8203C355.887 95.4902 356.165 96.3743 356.165 97.4727C356.165 98.5755 355.887 99.4665 355.331 100.146C354.78 100.82 354.055 101.157 353.157 101.157C352.647 101.157 352.191 101.034 351.79 100.788C351.394 100.537 351.07 100.184 350.819 99.7285V103.283H349.459V94ZM354.771 97.4727C354.771 96.6979 354.597 96.0964 354.251 95.668C353.905 95.2396 353.419 95.0254 352.795 95.0254C352.171 95.0254 351.685 95.2396 351.339 95.668C350.993 96.0964 350.819 96.6979 350.819 97.4727C350.819 98.2565 350.993 98.8649 351.339 99.2979C351.685 99.7308 352.171 99.9473 352.795 99.9473C353.419 99.9473 353.905 99.7308 354.251 99.2979C354.597 98.8649 354.771 98.2565 354.771 97.4727ZM361.62 98.1016C361.62 98.7168 361.764 99.1748 362.051 99.4756C362.342 99.7718 362.746 99.9199 363.261 99.9199C363.744 99.9199 364.147 99.7581 364.471 99.4346C364.794 99.1064 364.956 98.6895 364.956 98.1836V94H366.296V101H364.956V99.9199C364.71 100.316 364.389 100.626 363.992 100.85C363.6 101.073 363.197 101.185 362.782 101.185C362.03 101.185 361.422 100.938 360.957 100.446C360.492 99.9541 360.26 99.266 360.26 98.3818V94H361.62V98.1016ZM367.725 94H369.085V95.2305C369.336 94.7747 369.659 94.4261 370.056 94.1846C370.452 93.9385 370.908 93.8154 371.423 93.8154C372.321 93.8154 373.045 94.1504 373.597 94.8203C374.153 95.4902 374.431 96.3743 374.431 97.4727C374.431 98.5755 374.153 99.4665 373.597 100.146C373.045 100.82 372.321 101.157 371.423 101.157C370.912 101.157 370.457 101.034 370.056 100.788C369.659 100.537 369.336 100.184 369.085 99.7285V103.283H367.725V94ZM373.036 97.4727C373.036 96.6979 372.863 96.0964 372.517 95.668C372.17 95.2396 371.685 95.0254 371.061 95.0254C370.436 95.0254 369.951 95.2396 369.604 95.668C369.258 96.0964 369.085 96.6979 369.085 97.4727C369.085 98.2565 369.258 98.8649 369.604 99.2979C369.951 99.7308 370.436 99.9473 371.061 99.9473C371.685 99.9473 372.17 99.7308 372.517 99.2979C372.863 98.8649 373.036 98.2565 373.036 97.4727ZM378.266 94H379.701L381.048 99.4893L382.647 94H384.186L385.737 99.4893L387.152 94H388.608L386.469 101H384.951L383.399 95.4971L381.848 101H380.289L378.266 94ZM395.308 98.9287C395.308 99.8402 395.387 100.531 395.547 101H394.159C394.063 100.654 394.002 100.248 393.975 99.7832C393.724 100.212 393.387 100.549 392.963 100.795C392.544 101.036 392.079 101.157 391.568 101.157C390.889 101.157 390.331 100.959 389.894 100.562C389.461 100.161 389.244 99.6488 389.244 99.0244C389.244 98.4365 389.422 97.9717 389.777 97.6299C390.137 97.2835 390.646 97.0898 391.302 97.0488L393.209 96.9395C393.482 96.9212 393.676 96.862 393.79 96.7617C393.904 96.6615 393.961 96.5065 393.961 96.2969V96.2695C393.961 95.8913 393.808 95.57 393.503 95.3057C393.198 95.0413 392.824 94.9092 392.382 94.9092C391.366 94.9092 390.81 95.349 390.714 96.2285H389.299C389.349 95.4993 389.652 94.9183 390.208 94.4854C390.769 94.0479 391.493 93.8291 392.382 93.8291C393.234 93.8291 393.934 94.0729 394.48 94.5605C395.032 95.0436 395.308 95.6589 395.308 96.4062V98.9287ZM390.632 98.9287C390.632 99.2568 390.757 99.5189 391.008 99.7148C391.258 99.9108 391.593 100.009 392.013 100.009C392.569 100.009 393.031 99.8242 393.4 99.4551C393.774 99.0859 393.961 98.6211 393.961 98.0605V97.835L391.794 97.9648C391.019 98.0195 390.632 98.3408 390.632 98.9287ZM396.75 91.1973H398.11V101H396.75V91.1973ZM399.539 91.1973H400.899V101H399.539V91.1973ZM402.191 97.4727C402.191 96.3607 402.49 95.4811 403.087 94.834C403.684 94.1868 404.495 93.8633 405.521 93.8633C406.509 93.8633 407.321 94.196 407.954 94.8613C408.592 95.5267 408.911 96.3743 408.911 97.4043V97.835H403.606C403.657 98.5368 403.85 99.07 404.188 99.4346C404.529 99.7946 405.008 99.9746 405.623 99.9746C406.111 99.9746 406.507 99.8652 406.812 99.6465C407.118 99.4277 407.309 99.1224 407.387 98.7305H408.829C408.683 99.5143 408.339 100.107 407.797 100.508C407.255 100.909 406.525 101.109 405.609 101.109C404.561 101.109 403.729 100.784 403.114 100.132C402.499 99.4801 402.191 98.5938 402.191 97.4727ZM405.534 94.9365C404.413 94.9365 403.775 95.5723 403.62 96.8438H407.455C407.4 96.2604 407.2 95.7979 406.854 95.4561C406.507 95.1097 406.067 94.9365 405.534 94.9365ZM413.341 99.8105V101H412.65C412.09 101 411.634 100.84 411.283 100.521C410.937 100.198 410.764 99.7126 410.764 99.0654V95.1348H409.526V94H410.764V92.1816H412.104V94H413.341V95.1348H412.104V98.8877C412.104 99.2295 412.163 99.4688 412.281 99.6055C412.404 99.7422 412.58 99.8105 412.808 99.8105H413.341Z" fill="#9CA3AF"/>
<g clip-path="url(#clip1_4901_9331)">
<path d="M114.096 68.6914L90.1699 115.284L111.577 115.913L119.781 141.621C120.65 144.341 121.941 146.91 123.591 149.24C130.076 158.401 136.844 165.698 144.318 168.172L174.54 169.432L155.689 143.951C152.749 139.978 150.539 135.52 149.166 130.773L145.583 118.426L165.102 119.685L114.096 68.6914Z" fill="white"/>
<path d="M170.134 112.765L165.097 119.691L114.098 68.6908L120.394 62.3945L170.134 112.765Z" fill="white"/>
<path d="M180.839 169.433H174.543C159.432 159.989 150.447 138.191 145.58 118.434H151.876C158.166 141.768 167.579 159.221 180.839 169.433Z" fill="white"/>
<path d="M268.672 155.263L56.5949 141.272C40.8038 140.233 27.525 129.039 23.8291 113.657L0.671409 17.3553C-2.29414 5.0146 7.53435 -6.70276 20.4417 -6.21165L212.572 1.07943C221.142 1.40684 228.489 7.17422 230.693 15.3027L268.672 155.263Z" stroke="white" stroke-width="0.629627" stroke-miterlimit="10"/>
<path d="M113.961 46.9725C102.25 46.9725 92.27 38.4662 90.4126 26.8999L85.4512 -4.02734L133.932 -2.13846L137.49 19.1996C139.914 33.7377 128.7 46.9725 113.961 46.9725Z" stroke="white" stroke-width="0.629627" stroke-miterlimit="10"/>
<path d="M115.357 40.9871C118.834 40.9871 121.653 38.1681 121.653 34.6908C121.653 31.2135 118.834 28.3945 115.357 28.3945C111.879 28.3945 109.061 31.2135 109.061 34.6908C109.061 38.1681 111.879 40.9871 115.357 40.9871Z" fill="#666666"/>
<path d="M114.412 41.3035C117.889 41.3035 120.708 38.4845 120.708 35.0072C120.708 31.5299 117.889 28.7109 114.412 28.7109C110.934 28.7109 108.115 31.5299 108.115 35.0072C108.115 38.4845 110.934 41.3035 114.412 41.3035Z" fill="white"/>
<path d="M290.223 133.828L284.909 145.703C282.333 151.458 276.465 155.015 270.169 154.625L75.375 142.674L78.5231 -19.7695L310.648 -12.5162L296.374 101.119L291.784 128.652C291.488 130.434 290.966 132.172 290.223 133.828Z" stroke="white" stroke-width="0.629627" stroke-miterlimit="10"/>
</g>
</g>
<path d="M10 0.25H489C494.385 0.25 498.75 4.61522 498.75 10V142C498.75 147.385 494.385 151.75 489 151.75H10C4.61523 151.75 0.25 147.385 0.25 142V10C0.25 4.61522 4.61522 0.25 10 0.25Z" stroke="black" stroke-opacity="0.1" stroke-width="0.5"/>
<defs>
<clipPath id="clip0_4901_9331">
<path d="M0 10C0 4.47715 4.47715 0 10 0H489C494.523 0 499 4.47715 499 10V142C499 147.523 494.523 152 489 152H10C4.47716 152 0 147.523 0 142V10Z" fill="white"/>
</clipPath>
<clipPath id="clip1_4901_9331">
<rect width="311.181" height="189.53" fill="white" transform="translate(-0.180664 -20.0977)"/>
</clipPath>
</defs>
</svg>
