<svg width="41" height="40" viewBox="0 0 41 40" fill="none" xmlns="http://www.w3.org/2000/svg">
<rect x="0.5" width="40" height="40" rx="10" fill="white"/>
<path d="M7 19.14L12.463 9.73145L23.4903 11.3501L28.9533 23.389L23.4903 32.8988L13.4747 30.3696L7 19.14Z" fill="#060606" stroke="#060606" strokeWidth="0.202335"/>
<path d="M18.3296 7L28.9522 8.21401L23.388 11.249L12.4619 9.73152L18.3296 7Z" fill="black"/>
<path d="M28.9529 8.21411L34.2136 19.646L28.9529 23.1869L23.3887 11.2491L28.9529 8.21411Z" fill="black"/>
<path d="M28.9535 23.1869L34.2142 19.646L29.0546 29.9651L23.2881 33.0001L28.9535 23.1869Z" fill="black"/>
<path d="M14.3589 20.7584V21.1039L12.5076 21.7992L14.3589 22.4711V22.8251L12.1493 21.9741V21.6115L14.3589 20.7584ZM17.1082 23H16.7541L16.4832 22.2407H15.2675L15.0009 23H14.649L15.6962 20.1612H16.0588L17.1082 23ZM15.8711 20.5451L15.3678 21.9613H16.3787L15.8711 20.5451ZM18.6438 21.9506H17.7971V23H17.475V20.1612H18.6097C18.8912 20.1612 19.118 20.2437 19.2901 20.4086C19.4621 20.5735 19.5481 20.7925 19.5481 21.0655C19.5481 21.3257 19.4657 21.5383 19.3007 21.7032C19.1358 21.8682 18.9168 21.9506 18.6438 21.9506ZM18.5798 20.4534H17.7971V21.6542H18.5798C18.7789 21.6542 18.9339 21.6023 19.0448 21.4985C19.1571 21.3947 19.2133 21.2504 19.2133 21.0655C19.2133 20.8721 19.1578 20.7221 19.0469 20.6155C18.936 20.5074 18.7803 20.4534 18.5798 20.4534ZM19.9491 20.1612H20.2669V23H19.9491V20.1612ZM20.6465 22.8251V22.4796L22.4979 21.7821L20.6465 21.1124V20.7584L22.8562 21.6115V21.9741L20.6465 22.8251Z" fill="#FACA15"/>
</svg>
