<svg width="145" height="158" viewBox="0 0 145 158" fill="none" xmlns="http://www.w3.org/2000/svg">
<circle cx="71" cy="78.9727" r="71" fill="#CFE5FA"/>
<path d="M144.5 105.471C142.429 118.12 138.908 123.691 128.5 130.971M48.5 151.471C61.2269 157.443 68.635 158.609 82.5 155.471M3.5 113.471C9.31053 133.069 16.45 138.91 32.5 144.971M11.5 31.4713C15.7539 23.2894 19.8192 19.0231 32.5 12.4712M42.5 6.97125C66.4968 -0.781507 79.6733 -1.19662 102.5 6.97125" stroke="#3F83F8"/>
<path d="M48.5 63.4727H75" stroke="black"/>
<path d="M48.5 72.9727H75" stroke="black"/>
<path d="M48.5 80.9727H88.5" stroke="black"/>
<path d="M33.5 63.4727C37.6775 60.0781 37.3328 57.0903 33.5 50.4727H117.5V92.9727C117.5 100.705 111.232 106.973 103.5 106.973H33.5C37.4472 102.963 37.1072 100.404 33.5 95.4727C36.9235 91.843 37.1593 89.4835 33.5 84.4727C38.7603 80.297 37.4836 78.1733 33.5 74.4727C37.0379 71.0381 37.5544 68.7598 33.5 63.4727Z" fill="#FFFFFA" stroke="#94C1EB"/>
<rect x="80" y="63.9727" width="9" height="9" fill="#D9D9D9"/>
<rect x="80" y="87.9727" width="9" height="6" rx="3" fill="#D9D9D9"/>
<rect x="48" y="87.9727" width="2" height="7" fill="black"/>
<rect x="51" y="87.9727" width="2" height="7" fill="black"/>
<rect x="54" y="87.9727" width="2" height="7" fill="black"/>
<rect x="58" y="87.9727" width="2" height="7" fill="black"/>
<rect x="61" y="87.9727" width="2" height="7" fill="black"/>
<rect x="64" y="87.9727" width="2" height="7" fill="black"/>
<rect x="67" y="87.9727" width="2" height="7" fill="black"/>
<rect x="70" y="87.9727" width="2" height="7" fill="black"/>
<rect x="74" y="87.9727" width="2" height="7" fill="black"/>
<path d="M51.5 33.9727L59.5 39.4727M59.5 25.4727L65 33.9727M73 22.4727V31.9727M85 25.9727L81.5 32.9727M94.5 34.9727L87.5 39.4727" stroke="#94C1EB"/>
<circle cx="72.5" cy="46.4727" r="11.5" fill="white"/>
<path d="M99 80.9727V31.4727C108.108 32.2743 112.749 33.7332 117.5 43.9727V91.6536C110.929 81.0639 106.77 79.7686 99 80.9727Z" fill="#94C1EB" stroke="#94C1EB"/>
<path d="M51 103.973H59.5L61.7432 101.526C63.4356 99.6793 66.3891 99.8248 67.8918 101.828L69.5 103.973H79.5C82.2614 103.973 84.5 106.211 84.5 108.973V118.973C84.5 121.734 82.2614 123.973 79.5 123.973H51C48.2386 123.973 46 121.734 46 118.973V108.973C46 106.211 48.2385 103.973 51 103.973Z" fill="white" stroke="#90B1D2"/>
</svg>
