<svg width="115" height="64" viewBox="0 0 115 64" fill="none" xmlns="http://www.w3.org/2000/svg">
<g clipPath="url(#clip0_1773_1430)">
<path opacity="0.99" d="M100.694 58.4838H11.5235C10.6224 58.4838 9.89844 57.7571 9.89844 56.8638V1.87189C9.89844 0.973606 10.6274 0.251953 11.5235 0.251953H100.694C101.595 0.251953 102.319 0.978652 102.319 1.87189V56.8588C102.324 57.7571 101.595 58.4838 100.694 58.4838Z" fill="#92B3FB"/>
<path d="M16.4805 49.2941V9.44174C16.4805 7.98834 17.66 6.8125 19.118 6.8125H93.1014C94.5594 6.8125 95.7389 7.98834 95.7389 9.44174V49.2891C95.7389 50.7425 94.5594 51.9183 93.1014 51.9183H19.118C17.66 51.9234 16.4805 50.7475 16.4805 49.2941Z" fill="white"/>
<path d="M102.522 63.9991H7.41268C3.74237 63.9991 0.765625 61.168 0.765625 57.6758H6.06606H114.469H109.169C109.169 61.168 106.192 63.9991 102.522 63.9991Z" fill="#F1F1F1"/>
<path d="M35.7126 23.9311L32.6144 21.5441C33.9812 20.4894 34.8571 18.8391 34.8469 16.977C34.8267 13.9541 32.3562 11.4056 29.3288 11.2895C26.0483 11.1634 23.35 13.7724 23.35 17.0174C23.35 18.8694 24.2359 20.5095 25.6028 21.5592L23.0462 23.8402C21.8515 24.9051 21.0415 26.3282 20.7276 27.8926L20.3125 29.997H39.0235L38.0869 27.2517C37.6364 25.9346 36.8112 24.7789 35.7126 23.9311Z" fill="#262D3B"/>
<path d="M22.1602 28.4764L22.2209 28.1837C22.4639 26.9473 23.117 25.8068 24.0586 24.964L27.977 21.4668L26.524 20.3566C25.471 19.5491 23.6688 18.0402 24.8635 17.0158C26.0583 15.9863 26.762 12.7969 29.0958 12.7969C29.1515 12.7969 29.2072 12.7969 29.2679 12.8019C31.4903 12.8877 33.3128 14.765 33.328 16.9855C33.3382 18.3077 32.7357 19.5289 31.6827 20.3465L30.1336 21.5425L34.781 25.1255C35.6466 25.7967 36.2946 26.695 36.649 27.7295L36.9021 28.4714H22.1602V28.4764Z" fill="#212734"/>
<path d="M87.2946 23.9311L84.1964 21.5441C85.5633 20.4894 86.4391 18.8391 86.429 16.977C86.4087 13.9541 83.9382 11.4056 80.9108 11.2895C77.6303 11.1634 74.932 13.7724 74.932 17.0174C74.932 18.8694 75.818 20.5095 77.1848 21.5592L74.6283 23.8402C73.4335 24.9051 72.6235 26.3282 72.3097 27.8926L71.8945 29.997H90.6055L89.669 27.2517C89.2184 25.9346 88.3932 24.7789 87.2946 23.9311Z" fill="#262D3B"/>
<path d="M73.7422 28.4764L73.8029 28.1837C74.0459 26.9473 74.699 25.8068 75.6406 24.964L79.559 21.4668L78.1061 20.3566C77.0531 19.5491 75.2508 18.0402 76.4456 17.0158C77.6403 15.9863 78.344 12.7969 80.6778 12.7969C80.7335 12.7969 80.7892 12.7969 80.8499 12.8019C83.0724 12.8877 84.8949 14.765 84.9101 16.9855C84.9202 18.3077 84.3177 19.5289 83.2648 20.3465L81.7156 21.5425L86.363 25.1255C87.2287 25.7967 87.8767 26.695 88.2311 27.7295L88.4842 28.4714H73.7422V28.4764Z" fill="#212734"/>
<path d="M28.7916 35.8301H25.0646C22.3193 35.8301 20.0938 38.0556 20.0938 40.8009V46.9728C20.0938 49.7181 22.3193 51.9436 25.0646 51.9436H28.7916C31.537 51.9436 33.7625 49.7181 33.7625 46.9728V40.801C33.7625 38.0556 31.537 35.8301 28.7916 35.8301Z" fill="white"/>
<path d="M33.2165 49.1283L30.1183 46.7413C31.4851 45.6866 32.361 44.0364 32.3508 42.1742C32.3306 39.1514 29.8601 36.6029 26.8327 36.4868C23.5522 36.3606 20.8539 38.9697 20.8539 42.2146C20.8539 44.0667 21.7398 45.7068 23.1067 46.7565L20.5502 49.0375C19.3554 50.1023 18.5454 51.5254 18.2315 53.0899L17.8164 55.1943H36.5274L35.5908 52.449C35.1403 51.1268 34.3151 49.9762 33.2165 49.1283Z" fill="#262D3B"/>
<path d="M19.6641 53.6737L19.7248 53.381C19.9678 52.1446 20.6209 51.0041 21.5625 50.1613L25.4809 46.6641L24.0279 45.5538C22.9749 44.7464 21.1727 43.2375 22.3674 42.213C23.5622 41.1886 24.2659 37.9941 26.5997 37.9941C26.6554 37.9941 26.7111 37.9941 26.7718 37.9992C28.9942 38.085 30.8167 39.9623 30.8319 42.1828C30.8421 43.5049 30.2396 44.7262 29.1866 45.5437L27.6375 46.7398L32.2849 50.3228C33.1506 50.994 33.7986 51.8923 34.1529 52.9268L34.4061 53.6686H19.6641V53.6737Z" fill="#212734"/>
<path d="M49.2404 51.9438C45.4638 51.9236 42.4213 48.8604 42.4415 45.0957L42.4921 35.7949L56.1609 35.8656L56.1102 45.1663C56.0951 48.926 53.0171 51.9589 49.2404 51.9438Z" fill="white"/>
<path d="M55.5426 49.1574L52.4596 46.7502C53.8315 45.7005 54.7174 44.0553 54.7174 42.1982C54.7124 39.1753 52.2571 36.6117 49.2297 36.4805C45.9492 36.3342 43.2357 38.9331 43.2205 42.178C43.2104 44.0301 44.0862 45.6753 45.448 46.73L42.8813 48.9959C41.6815 50.0556 40.8614 51.4737 40.5424 53.0381L40.1172 55.1375L58.8282 55.2334L57.9017 52.483C57.4613 51.1709 56.6412 50.0153 55.5426 49.1574Z" fill="#262D3B"/>
<path d="M41.9688 53.6345L42.0295 53.3418C42.2826 52.1105 42.9407 50.9699 43.8874 50.1322L47.8261 46.6552L46.3832 45.5348C45.3302 44.7224 43.5432 43.2033 44.743 42.1839C45.9428 41.1645 46.6617 37.9751 48.9955 37.9903C49.0512 37.9903 49.1069 37.9903 49.1676 37.9953C51.3901 38.0912 53.2024 39.9786 53.2075 42.2041C53.2075 43.5263 52.6051 44.7476 51.547 45.555L49.9928 46.746L54.6199 50.3543C55.4856 51.0305 56.1235 51.9338 56.4728 52.9684L56.7259 53.7153L41.9688 53.6345Z" fill="#212734"/>
<path d="M43.8516 21.2305H55.5662" stroke="#212734" stroke-width="0.621359" stroke-miterlimit="10" strokeLinecap="round"/>
<path d="M62.2812 43.8926H73.9959" stroke="#212734" stroke-width="0.621359" stroke-miterlimit="10" strokeLinecap="round"/>
<path d="M43.8516 17.4453H66.81" stroke="#212734" stroke-width="0.621359" stroke-miterlimit="10" strokeLinecap="round"/>
<path d="M62.2812 40.1074H85.2397" stroke="#212734" stroke-width="0.621359" stroke-miterlimit="10" strokeLinecap="round"/>
<path d="M43.8516 13.998H66.81" stroke="#212734" stroke-width="0.621359" stroke-miterlimit="10" strokeLinecap="round"/>
<path d="M62.2812 36.6602H85.2397" stroke="#212734" stroke-width="0.621359" stroke-miterlimit="10" strokeLinecap="round"/>
</g>
<defs>
<clipPath id="clip0_1773_1430">
<rect width="113.709" height="64" fill="white" transform="translate(0.765625)"/>
</clipPath>
</defs>
</svg>
