<svg width="145" height="123" viewBox="0 0 145 123" fill="none" xmlns="http://www.w3.org/2000/svg">
<rect width="138" height="123" rx="4" fill="black"/>
<g opacity="0.1" clip-path="url(#clip0_5998_4119)">
<path d="M51.2344 69.5405C45.7393 67.7483 45.0718 68.4685 39.6589 64.8643C39.4386 64.7163 37.4688 63.8383 37.3635 63.5851L36.5644 62.9602C33.7824 60.7865 31.5725 57.942 30.2505 54.6667C29.5994 53.0487 29.2443 51.4768 29.1949 48.4021L29.6191 29.7991C35.5614 25.3596 42.5265 17.6152 49.9124 8.4864C57.6963 9.10792 62.9875 8.76263 68.6206 7L76.513 11.0876L70.2189 25.9647C70.2123 28.5199 69.8801 31.0586 69.2389 33.5184L66.789 42.8873C66.391 44.4099 65.8156 45.87 65.0789 47.2347L58.3704 59.6257L51.2344 69.5405Z" fill="#FACA15"/>
<path d="M56.9953 69.6438C51.1451 70.216 45.6204 68.3152 40.2076 64.9906C39.9872 64.8557 39.8129 64.6551 39.7077 64.4184C37.5801 59.6336 36.439 54.474 36.3502 49.2387L36.0674 32.6483C42.9699 29.1066 49.5271 21.7469 55.9397 12.7759C63.7236 13.3481 70.6688 13.062 76.3053 11.4375L76.2461 28.8895C76.2395 31.2441 75.9074 33.5855 75.2662 35.8512L72.8162 44.4868C72.4183 45.891 71.8428 47.236 71.1062 48.4955L64.3944 59.9197L56.9953 69.6438Z" fill="#1C64F2" stroke="white" stroke-width="0.328849" stroke-miterlimit="10"/>
<path opacity="0.1" d="M101.883 91.8887C115.142 91.8887 125.889 84.327 125.889 74.9991C125.889 65.6711 115.142 58.1094 101.883 58.1094C88.6253 58.1094 77.8774 65.6711 77.8774 74.9991C77.8774 84.327 88.6253 91.8887 101.883 91.8887Z" fill="#2B3990"/>
<path d="M101.883 90.5783C114.415 90.5783 124.574 83.6054 124.574 75.004C124.574 66.4025 114.415 59.4297 101.883 59.4297C89.3517 59.4297 79.1928 66.4025 79.1928 75.004C79.1928 83.6054 89.3517 90.5783 101.883 90.5783Z" fill="#3F83F8"/>
<path d="M49.8069 75.7734L20 94.166L59.9552 116.998L90.7157 99.5558L49.8069 75.7734Z" fill="#E6E7E8"/>
<path opacity="0.27" d="M44.1273 92.4681C47.5926 92.4681 50.4018 90.7823 50.4018 88.7028C50.4018 86.6233 47.5926 84.9375 44.1273 84.9375C40.6621 84.9375 37.8529 86.6233 37.8529 88.7028C37.8529 90.7823 40.6621 92.4681 44.1273 92.4681Z" fill="#27AAE1"/>
<path opacity="0.27" d="M70.4782 95.319L54.848 104.103L49.9876 101.172C46.9227 99.3243 46.9096 94.8849 49.9646 93.017C54.7263 90.1067 60.5404 89.8009 65.5356 92.1456C66.1144 92.4185 66.6668 92.7473 67.1963 93.1058L70.4782 95.319Z" fill="#27AAE1"/>
<path d="M45.1833 89.7181C48.6485 89.7181 51.4577 88.0323 51.4577 85.9528C51.4577 83.8733 48.6485 82.1875 45.1833 82.1875C41.718 82.1875 38.9088 83.8733 38.9088 85.9528C38.9088 88.0323 41.718 89.7181 45.1833 89.7181Z" fill="#27AAE1"/>
<path d="M71.5341 92.5689L55.9039 101.353L51.0435 98.4225C47.9786 96.5743 47.9655 92.1349 51.0205 90.267C55.7822 87.3567 61.5963 87.0509 66.5915 89.3956C67.1703 89.6685 67.7227 89.9974 68.2522 90.3558L71.5341 92.5689Z" fill="#27AAE1"/>
<path d="M122.743 115.172C120.615 116.267 117.886 115.205 116.652 112.804L105.159 86.3353C103.923 83.9314 104.646 81.0968 106.774 80.0017C108.901 78.9066 111.631 79.9688 112.864 82.3694L124.357 108.838C125.594 111.242 124.87 114.077 122.743 115.172Z" fill="#1C64F2"/>
<path d="M101.847 86.4845C113.542 86.4845 123.022 79.8282 123.022 71.6173C123.022 63.4063 113.542 56.75 101.847 56.75C90.1528 56.75 80.6726 63.4063 80.6726 71.6173C80.6726 79.8282 90.1528 86.4845 101.847 86.4845Z" fill="white" stroke="white" stroke-width="0.328849" stroke-miterlimit="10"/>
<path d="M59.9746 46.1641H57.1621L56.8281 28.6035H60.3262L59.9746 46.1641ZM60.5723 52H56.582V48.5371H60.5723V52Z" fill="#84E1BC" fill-opacity="0.1"/>
<path d="M60.9746 48.1641H58.1621L57.8281 30.6035H61.3262L60.9746 48.1641ZM61.5723 54H57.582V50.5371H61.5723V54Z" fill="#E02424"/>
</g>
<defs>
<clipPath id="clip0_5998_4119">
<rect width="105.889" height="110" fill="white" transform="translate(20 7)"/>
</clipPath>
</defs>
</svg>
