<svg width="64" height="64" viewBox="0 0 64 64" fill="none" xmlns="http://www.w3.org/2000/svg">
<circle cx="32" cy="32" r="32" fill="#1C64F2"/>
<path d="M28.1787 19.334C24.624 19.414 22.548 19.754 21.1293 21.1673C19.8867 22.4047 19.472 24.1447 19.3333 26.934M35.8213 19.334C39.376 19.414 41.452 19.754 42.8707 21.1673C44.1133 22.4047 44.528 24.1447 44.6667 26.934M35.8213 44.6673C39.376 44.5873 41.452 44.2473 42.8707 42.834C44.1133 41.5967 44.528 39.8567 44.6667 37.0673M28.1787 44.6673C24.624 44.5873 22.548 44.2473 21.1293 42.834C19.8867 41.5967 19.472 39.8567 19.3333 37.0673M26 38.6673C29.1093 35.4113 34.8573 35.258 38 38.6673M35.3267 28.6673C35.3267 30.5073 33.8333 32.0007 31.9893 32.0007C31.5511 32.0014 31.1171 31.9157 30.7121 31.7484C30.307 31.5812 29.939 31.3358 29.6289 31.0262C29.3188 30.7166 29.0728 30.3489 28.9049 29.9442C28.7371 29.5394 28.6507 29.1055 28.6507 28.6673C28.6507 26.8273 30.144 25.334 31.9893 25.334C32.4274 25.3335 32.8613 25.4193 33.2662 25.5866C33.671 25.7539 34.039 25.9993 34.3489 26.3089C34.6589 26.6185 34.9048 26.9861 35.0725 27.3908C35.2403 27.7955 35.3267 28.2292 35.3267 28.6673Z" stroke="white" stroke-width="2" stroke-linecap="round" stroke-linejoin="round"/>
</svg>
