<svg width="64" height="64" viewBox="0 0 64 64" fill="none" xmlns="http://www.w3.org/2000/svg">
<circle cx="32" cy="32" r="32" fill="#1C64F2"/>
<path d="M37.5693 40.608C37.9693 40.8 38.4667 41.2973 38.708 41.6986C38.788 42.2586 39.188 40.0946 41.1453 38.812M44.6667 40.0013C44.6667 41.4158 44.1048 42.7723 43.1046 43.7725C42.1044 44.7727 40.7478 45.3346 39.3333 45.3346C37.9189 45.3346 36.5623 44.7727 35.5621 43.7725C34.5619 42.7723 34 41.4158 34 40.0013C34 38.5868 34.5619 37.2303 35.5621 36.2301C36.5623 35.2299 37.9189 34.668 39.3333 34.668C40.7478 34.668 42.1044 35.2299 43.1046 36.2301C44.1048 37.2303 44.6667 38.5868 44.6667 40.0013Z" stroke="white" stroke-width="2" stroke-linecap="round" stroke-linejoin="round"/>
<path d="M30.6773 34.6673C32.1501 34.6673 33.344 33.4734 33.344 32.0007C33.344 30.5279 32.1501 29.334 30.6773 29.334C29.2046 29.334 28.0107 30.5279 28.0107 32.0007C28.0107 33.4734 29.2046 34.6673 30.6773 34.6673Z" stroke="white" stroke-width="2" stroke-linecap="round" stroke-linejoin="round"/>
<path d="M26.0107 40.0014C27.2773 38.8014 28.344 38.1347 30.7107 38.0014M42.0107 31.3347C42.0107 30.2681 42.044 27.0014 41.8773 25.6681C41.7773 24.5681 41.4773 23.0681 40.1107 22.2014C39.2773 21.7681 38.4773 21.3681 34.644 21.3347M26.6107 21.3347C23.744 21.3347 21.5107 21.5681 20.4107 22.9347C19.4773 24.2107 19.532 25.6681 19.444 26.1347C19.244 28.6347 19.3773 37.3681 19.3773 38.8347C19.3773 40.3681 19.2773 43.4841 21.3773 44.5347C23.1773 45.4347 25.044 45.3014 31.3773 45.3347M30.4773 18.6681C29.6773 18.6681 29.0107 18.6681 28.344 19.3681C27.7773 19.9014 27.864 20.3721 27.644 21.2014C27.332 22.3681 27.1773 22.9841 27.6107 23.4681C28.008 23.9881 28.676 23.9907 29.2667 23.9921H29.2773C29.844 24.0321 31.748 24.0134 32.3107 23.9921C32.9133 23.9681 33.4 23.9347 33.8107 23.4014C34.1773 22.9254 33.96 22.1321 33.744 21.3014C33.5307 20.4827 33.6107 20.0681 33.044 19.3681C32.244 18.5681 31.2773 18.6681 30.4773 18.6681Z" stroke="white" stroke-width="2" stroke-linecap="round" stroke-linejoin="round"/>
</svg>
