<svg width="64" height="64" viewBox="0 0 64 64" fill="none" xmlns="http://www.w3.org/2000/svg">
<circle cx="32" cy="32" r="32" fill="#1C64F2"/>
<path d="M40 26.6654C37.772 25.828 35.0013 25.332 32 25.332C28.9987 25.332 26.228 25.828 24 26.6654" stroke="white" stroke-width="2" stroke-linecap="round" stroke-linejoin="round"/>
<path d="M25.2934 26.666L24.32 24.782C23.548 23.2887 23.1627 22.542 23.4054 21.8807C23.648 21.2207 24.396 20.9833 25.892 20.5113L31.1854 18.838C31.548 18.7233 31.728 18.666 31.9134 18.666C32.0987 18.666 32.28 18.7233 32.6414 18.838L38.292 20.6247C39.6387 21.05 40.3134 21.262 40.5694 21.8607C40.8267 22.458 40.5507 23.1713 39.9987 24.5953L39.1974 26.666M25.3334 26.666V28.966C25.3334 31.3567 26.5614 33.5727 28.5707 34.8033L29.256 35.2233C30.0814 35.7307 31.0312 35.9993 32 35.9993C32.9688 35.9993 33.9187 35.7307 34.744 35.2233L35.4307 34.8033C36.4237 34.1877 37.2425 33.328 37.809 32.3062C38.3755 31.2843 38.6708 30.1344 38.6667 28.966V26.666M36 34.666L37.3334 38.666M37.3334 38.666L35.508 40.2593C33.836 41.7207 33.0014 42.45 32 42.45C30.9987 42.45 30.164 41.7207 28.492 40.2593L26.6667 38.666M37.3334 38.666L39.6454 39.4367C40.976 39.8807 41.6414 40.1033 42.232 40.4447C42.8103 40.7803 43.3349 41.201 43.788 41.6927C44.2507 42.1954 45.3334 43.9993 45.3334 45.3327M26.6667 38.666L28 34.666M26.6667 38.666L24.3547 39.4367C23.024 39.8807 22.3587 40.1033 21.768 40.4447C21.1897 40.7803 20.6652 41.201 20.212 41.6927C19.7494 42.1954 18.6667 43.9993 18.6667 45.3327" stroke="white" stroke-width="2" stroke-linecap="round" stroke-linejoin="round"/>
</svg>
