<svg width="106" height="108" viewBox="0 0 106 108" fill="none" xmlns="http://www.w3.org/2000/svg">
<g clip-path="url(#clip0_4930_17957)">
<path opacity="0.3" d="M75.8683 20.6133H5.50079C3.93033 20.6133 2.65723 21.8864 2.65723 23.4568V74.0006C2.65723 75.5711 3.93033 76.8442 5.50079 76.8442H75.8683C77.4388 76.8442 78.7119 75.5711 78.7119 74.0006V23.4568C78.7119 21.8864 77.4388 20.6133 75.8683 20.6133Z" fill="black"/>
<path d="M95.3447 5.1875C95.6277 5.42739 95.9026 5.67342 96.1696 5.92561" stroke="#231F20" stroke-width="0.184527" stroke-miterlimit="10"/>
<path d="M97.6927 7.52734C109.248 21.1288 102.946 50.0922 82.5947 75.1381" stroke="#FF080F" stroke-width="0.184527" stroke-miterlimit="10" stroke-dasharray="2.21 2.21"/>
<path d="M81.8911 75.9922C81.6549 76.2745 81.4187 76.5587 81.1807 76.841" stroke="#231F20" stroke-width="0.184527" stroke-miterlimit="10"/>
<path d="M81.1831 76.8404C58.418 103.8 27.8547 115.429 12.9081 102.813C-2.03864 90.1965 4.30725 58.1146 27.0723 31.1552C49.8375 4.19579 80.4007 -7.4331 95.3474 5.18301" stroke="#FF080F" stroke-width="0.184527" stroke-miterlimit="10"/>
<path d="M102.459 24.0582C104.361 24.0582 105.904 22.5158 105.904 20.6131C105.904 18.7104 104.361 17.168 102.459 17.168C100.556 17.168 99.0137 18.7104 99.0137 20.6131C99.0137 22.5158 100.556 24.0582 102.459 24.0582Z" fill="#231F20"/>
<path d="M99.0135 52.0348C100.916 52.0348 102.459 50.4923 102.459 48.5896C102.459 46.687 100.916 45.1445 99.0135 45.1445C97.1108 45.1445 95.5684 46.687 95.5684 48.5896C95.5684 50.4923 97.1108 52.0348 99.0135 52.0348Z" fill="#231F20"/>
<path d="M73.3039 20.6133H2.93634C1.36588 20.6133 0.0927734 21.8864 0.0927734 23.4568V74.0006C0.0927734 75.5711 1.36588 76.8442 2.93634 76.8442H73.3039C74.8743 76.8442 76.1474 75.5711 76.1474 74.0006V23.4568C76.1474 21.8864 74.8743 20.6133 73.3039 20.6133Z" fill="#181818" stroke="#231F20" stroke-width="0.184527" stroke-miterlimit="10"/>
<path d="M0.0927734 30.8711H37.0554V74.2958C37.0554 74.9717 36.7869 75.6199 36.309 76.0978C35.8311 76.5757 35.1829 76.8442 34.5071 76.8442H2.64109C1.96524 76.8442 1.31706 76.5757 0.839159 76.0978C0.361256 75.6199 0.0927734 74.9717 0.0927734 74.2958V30.8711Z" fill="#231F20"/>
<path d="M0.0927734 30.7461L76.1474 30.7885" stroke="#231F20" stroke-width="0.184527" stroke-miterlimit="10"/>
<path d="M53.1768 41.0117H43.8804C43.1466 41.0117 42.5518 41.6066 42.5518 42.3403C42.5518 43.0741 43.1466 43.6689 43.8804 43.6689H53.1768C53.9106 43.6689 54.5054 43.0741 54.5054 42.3403C54.5054 41.6066 53.9106 41.0117 53.1768 41.0117Z" fill="#231F20"/>
<path d="M53.1768 57.6406H43.8804C43.1466 57.6406 42.5518 58.2355 42.5518 58.9692C42.5518 59.703 43.1466 60.2978 43.8804 60.2978H53.1768C53.9106 60.2978 54.5054 59.703 54.5054 58.9692C54.5054 58.2355 53.9106 57.6406 53.1768 57.6406Z" fill="#231F20"/>
<path d="M25.6955 41.0117H7.94774C7.21397 41.0117 6.61914 41.6066 6.61914 42.3403C6.61914 43.0741 7.21397 43.6689 7.94774 43.6689H25.6955C26.4293 43.6689 27.0241 43.0741 27.0241 42.3403C27.0241 41.6066 26.4293 41.0117 25.6955 41.0117Z" fill="white"/>
<path d="M19.2371 49.3281H7.94774C7.21397 49.3281 6.61914 49.923 6.61914 50.6567C6.61914 51.3905 7.21397 51.9853 7.94774 51.9853H19.2371C19.9709 51.9853 20.5657 51.3905 20.5657 50.6567C20.5657 49.923 19.9709 49.3281 19.2371 49.3281Z" fill="white"/>
<path d="M25.6955 57.6406H7.94774C7.21397 57.6406 6.61914 58.2355 6.61914 58.9692C6.61914 59.703 7.21397 60.2978 7.94774 60.2978H25.6955C26.4293 60.2978 27.0241 59.703 27.0241 58.9692C27.0241 58.2355 26.4293 57.6406 25.6955 57.6406Z" fill="white"/>
<path d="M62.1781 49.6719H43.8804C43.1466 49.6719 42.5518 50.2667 42.5518 51.0005C42.5518 51.7342 43.1466 52.3291 43.8804 52.3291H62.1781C62.9118 52.3291 63.5067 51.7342 63.5067 51.0005C63.5067 50.2667 62.9118 49.6719 62.1781 49.6719Z" fill="#231F20"/>
<g filter="url(#filter0_ii_4930_17957)">
<path d="M66.8378 106.906L45.8018 94.1348C45.007 93.6546 44.3508 92.9759 43.8978 92.1653C43.4448 91.3548 43.2105 90.4403 43.2179 89.5117C43.2254 88.5832 43.4743 87.6725 43.9403 86.8693C44.4063 86.0661 45.0732 85.398 45.8756 84.9306L63.8245 74.4255C64.6274 73.9556 65.5386 73.7028 66.4688 73.6918C67.3989 73.6808 68.316 73.912 69.1297 74.3628L90.2986 86.1061C91.1116 86.555 91.7937 87.2077 92.2779 88.0001C92.7622 88.7924 93.0319 89.6972 93.0606 90.6254C93.0893 91.5536 92.8759 92.4733 92.4415 93.2941C92.007 94.1148 91.3665 94.8084 90.5828 95.3066L72.4991 106.843C71.6554 107.381 70.6779 107.672 69.6774 107.683C68.6769 107.694 67.6933 107.425 66.8378 106.906Z" fill="#FF080F"/>
</g>
<path d="M66.8378 106.906L45.8018 94.1348C45.007 93.6546 44.3508 92.9759 43.8978 92.1653C43.4448 91.3548 43.2105 90.4403 43.2179 89.5117C43.2254 88.5832 43.4743 87.6725 43.9403 86.8693C44.4063 86.0661 45.0732 85.398 45.8756 84.9306L63.8245 74.4255C64.6274 73.9556 65.5386 73.7028 66.4688 73.6918C67.3989 73.6808 68.316 73.912 69.1297 74.3628L90.2986 86.1061C91.1116 86.555 91.7937 87.2077 92.2779 88.0001C92.7622 88.7924 93.0319 89.6972 93.0606 90.6254C93.0893 91.5536 92.8759 92.4733 92.4415 93.2941C92.007 94.1148 91.3665 94.8084 90.5828 95.3066L72.4991 106.843C71.6554 107.381 70.6779 107.672 69.6774 107.683C68.6769 107.694 67.6933 107.425 66.8378 106.906Z" stroke="#231F20" stroke-width="0.0922635" stroke-miterlimit="10"/>
<path d="M67.2161 98.9221L47.3481 86.8596C46.5537 86.3793 45.898 85.7006 45.4452 84.8902C44.9925 84.0798 44.7584 83.1656 44.7658 82.2374C44.7732 81.3091 45.022 80.3988 45.4877 79.5958C45.9534 78.7928 46.6199 78.1247 47.4219 77.6572L65.3708 67.1521C66.1736 66.6822 67.0849 66.4293 68.0151 66.4183C68.9452 66.4073 69.8622 66.6386 70.676 67.0893L90.8632 78.2846C91.6792 78.7364 92.3629 79.3937 92.8465 80.1912C93.3301 80.9887 93.5969 81.8988 93.6204 82.8312C93.6439 83.7636 93.4233 84.686 92.9805 85.5069C92.5376 86.3277 91.8879 87.0186 91.0957 87.5109L72.8276 98.8833C71.9875 99.4087 71.0181 99.6904 70.0273 99.6973C69.0365 99.7041 68.0633 99.4358 67.2161 98.9221Z" fill="#FF080F" stroke="#231F20" stroke-width="0.0922635" stroke-miterlimit="10"/>
<path d="M67.0371 90.0147L47.3481 78.0611C46.5537 77.5808 45.898 76.9021 45.4452 76.0917C44.9925 75.2813 44.7584 74.3671 44.7658 73.4389C44.7732 72.5106 45.022 71.6003 45.4877 70.7973C45.9534 69.9943 46.6199 69.3262 47.4219 68.8587L65.3708 58.3517C66.1735 57.8813 67.085 57.6282 68.0153 57.6175C68.9456 57.6069 69.8627 57.8389 70.676 58.2908L89.5106 68.7369C90.3057 69.1762 90.9759 69.8106 91.4581 70.5804C91.9403 71.3502 92.2186 72.2301 92.2668 73.1371C92.3149 74.0442 92.1314 74.9486 91.7335 75.7652C91.3356 76.5818 90.7364 77.2836 89.9923 77.8046L72.8995 89.8191C72.0475 90.4189 71.0389 90.757 69.9975 90.7917C68.9561 90.8265 67.9272 90.5564 67.0371 90.0147Z" fill="#FF080F" stroke="#231F20" stroke-width="0.0922635" stroke-miterlimit="10"/>
<path d="M67.1164 66.4144C68.3699 66.4144 69.386 65.3982 69.386 64.1447C69.386 62.8912 68.3699 61.875 67.1164 61.875C65.8628 61.875 64.8467 62.8912 64.8467 64.1447C64.8467 65.3982 65.8628 66.4144 67.1164 66.4144Z" fill="#F5F5F5"/>
<path d="M61.5578 70.9573C62.8113 70.9573 63.8275 69.9412 63.8275 68.6876C63.8275 67.4341 62.8113 66.418 61.5578 66.418C60.3043 66.418 59.2881 67.4341 59.2881 68.6876C59.2881 69.9412 60.3043 70.9573 61.5578 70.9573Z" fill="#F5F5F5"/>
<path d="M56.0002 75.43C57.2537 75.43 58.2698 74.4138 58.2698 73.1603C58.2698 71.9068 57.2537 70.8906 56.0002 70.8906C54.7466 70.8906 53.7305 71.9068 53.7305 73.1603C53.7305 74.4138 54.7466 75.43 56.0002 75.43Z" fill="#F5F5F5"/>
<path d="M80.6309 72.5779L78.9868 73.9305L69.0371 67.4776L70.5078 65.8906L80.6309 72.5779Z" fill="#F5F5F5"/>
<path d="M76.0401 76.8709L74.3978 78.2234L64.4463 71.7687L65.9188 70.1836L76.0401 76.8709Z" fill="#F5F5F5"/>
<path d="M70.2442 80.8943L68.6001 82.2469L58.6504 75.7921L60.1211 74.207L70.2442 80.8943Z" fill="#F5F5F5"/>
<path d="M7.27391 28.1357C8.34907 28.1357 9.22067 27.2641 9.22067 26.1889C9.22067 25.1138 8.34907 24.2422 7.27391 24.2422C6.19874 24.2422 5.32715 25.1138 5.32715 26.1889C5.32715 27.2641 6.19874 28.1357 7.27391 28.1357Z" fill="#231F20"/>
<path d="M13.5923 28.1357C14.6674 28.1357 15.539 27.2641 15.539 26.1889C15.539 25.1138 14.6674 24.2422 13.5923 24.2422C12.5171 24.2422 11.6455 25.1138 11.6455 26.1889C11.6455 27.2641 12.5171 28.1357 13.5923 28.1357Z" fill="#231F20"/>
<path d="M19.3657 28.1357C20.4409 28.1357 21.3125 27.2641 21.3125 26.1889C21.3125 25.1138 20.4409 24.2422 19.3657 24.2422C18.2905 24.2422 17.4189 25.1138 17.4189 26.1889C17.4189 27.2641 18.2905 28.1357 19.3657 28.1357Z" fill="#231F20"/>
</g>
<defs>
<filter id="filter0_ii_4930_17957" x="43.1719" y="73.6445" width="49.9375" height="35.0859" filterUnits="userSpaceOnUse" color-interpolation-filters="sRGB">
<feFlood flood-opacity="0" result="BackgroundImageFix"/>
<feBlend mode="normal" in="SourceGraphic" in2="BackgroundImageFix" result="shape"/>
<feColorMatrix in="SourceAlpha" type="matrix" values="0 0 0 0 0 0 0 0 0 0 0 0 0 0 0 0 0 0 127 0" result="hardAlpha"/>
<feOffset dy="1"/>
<feGaussianBlur stdDeviation="6.5"/>
<feComposite in2="hardAlpha" operator="arithmetic" k2="-1" k3="1"/>
<feColorMatrix type="matrix" values="0 0 0 0 1 0 0 0 0 1 0 0 0 0 1 0 0 0 0.25 0"/>
<feBlend mode="hard-light" in2="shape" result="effect1_innerShadow_4930_17957"/>
<feColorMatrix in="SourceAlpha" type="matrix" values="0 0 0 0 0 0 0 0 0 0 0 0 0 0 0 0 0 0 127 0" result="hardAlpha"/>
<feOffset dy="2"/>
<feGaussianBlur stdDeviation="0.5"/>
<feComposite in2="hardAlpha" operator="arithmetic" k2="-1" k3="1"/>
<feColorMatrix type="matrix" values="0 0 0 0 0.979537 0 0 0 0 0.0122747 0 0 0 0 0.0122747 0 0 0 0.3 0"/>
<feBlend mode="normal" in2="effect1_innerShadow_4930_17957" result="effect2_innerShadow_4930_17957"/>
</filter>
<clipPath id="clip0_4930_17957">
<rect width="105.904" height="108" fill="white"/>
</clipPath>
</defs>
</svg>
