<svg width="64" height="64" viewBox="0 0 64 64" fill="none" xmlns="http://www.w3.org/2000/svg">
<circle cx="32" cy="32" r="32" fill="#1C64F2"/>
<path d="M31.928 23.9993L28.7787 38.7807C28.528 39.9567 28.6653 40.3967 29.5293 41.242L33.0227 44.6567C33.484 45.1073 33.7133 45.3327 34 45.3327C34.2867 45.3327 34.516 45.1073 34.9773 44.6567L38.4707 41.242C39.3347 40.3967 39.472 39.9567 39.2213 38.7807L36.072 23.9993M30.076 20.1647C29.9853 19.466 29.9413 19.1167 30.1453 18.8913C30.3507 18.666 30.7133 18.666 31.4387 18.666H36.5627C37.2867 18.666 37.6493 18.666 37.8547 18.8927C38.0587 19.1167 38.0147 19.466 37.924 20.1647L37.8573 20.6913C37.6667 22.1687 37.572 22.9073 37.0973 23.386C37.0191 23.4651 36.9356 23.5367 36.8467 23.6007C36.2987 23.9993 35.532 23.9993 34 23.9993C32.4667 23.9993 31.7013 23.9993 31.1533 23.6007C31.0645 23.5365 30.9811 23.4652 30.904 23.3873C30.428 22.9073 30.3333 22.1687 30.144 20.6913L30.076 20.1647Z" stroke="white" stroke-width="2" stroke-linecap="round" stroke-linejoin="round"/>
<path d="M29.3333 36C28.5227 36.924 27.8373 37.3333 27.3333 37.3333C26.688 37.3333 25.5253 35.7067 25.0093 34.5267C24.7667 33.9747 24.6453 33.6973 24.6693 33.348C24.6933 32.9973 24.852 32.7427 25.1693 32.2307C26.9627 29.3373 30.02 26.6933 32 24" stroke="white" stroke-width="2" stroke-linecap="round" stroke-linejoin="round"/>
</svg>
