<svg width="32" height="32" viewBox="0 0 32 32" fill="none" xmlns="http://www.w3.org/2000/svg">
<rect width="32" height="32" rx="4" fill="#28A745" fill-opacity="0.1"/>
<path d="M18.2618 7.59937C17.1956 6.53312 16.6625 6 16 6C15.3375 6 14.8044 6.53312 13.7381 7.59937C13.0983 8.2392 12.4643 8.53626 11.5521 8.53626C10.7556 8.53626 9.62243 8.38178 9 9.00944C8.38249 9.63214 8.53628 10.7607 8.53628 11.5521C8.53628 12.4643 8.2392 13.0983 7.59935 13.7382C6.53312 14.8044 6.00001 15.3375 6 16C6.00002 16.6624 6.53314 17.1956 7.59938 18.2618C8.31616 18.9786 8.53628 19.4414 8.53628 20.4479C8.53628 21.2444 8.38181 22.3776 9.00949 23C9.63218 23.6175 10.7607 23.4637 11.5521 23.4637C12.5235 23.4637 12.9913 23.6537 13.6846 24.347C14.2749 24.9374 15.0663 26 16 26C16.9337 26 17.7251 24.9374 18.3154 24.347C19.0087 23.6537 19.4765 23.4637 20.4479 23.4637C21.2393 23.4637 22.3678 23.6175 22.9905 23M22.9905 23C23.6182 22.3776 23.4637 21.2444 23.4637 20.4479C23.4637 19.4414 23.6838 18.9786 24.4006 18.2618C25.4669 17.1956 26 16.6624 26 16C26 15.3375 25.4669 14.8044 24.4006 13.7382M22.9905 23H23" stroke="#01A86D" stroke-width="1.5" stroke-linecap="round" stroke-linejoin="round"/>
<path d="M12 14.3077C12 14.3077 14.25 14 16 18C16 18 21.0588 8 26 6" stroke="#01A86D" stroke-width="1.5" stroke-linecap="round" stroke-linejoin="round"/>
</svg>
