<svg width="41" height="40" viewBox="0 0 41 40" fill="none" xmlns="http://www.w3.org/2000/svg">
<rect x="0.5" width="40" height="40" rx="10" fill="white"/>
<path d="M7 19.139L12.463 9.73047L23.4903 11.3491L28.9533 23.3881L23.4903 32.8978L13.4747 30.3686L7 19.139Z" fill="#060606" stroke="#060606" stroke-width="0.202335"/>
<path d="M18.3286 7L28.9512 8.21401L23.387 11.249L12.4609 9.73152L18.3286 7Z" fill="#FACA15"/>
<path d="M28.9509 8.21484L34.2116 19.6468L28.9509 23.1876L23.3867 11.2499L28.9509 8.21484Z" fill="#FACA15"/>
<path d="M28.9544 23.1854L34.2151 19.6445L29.0556 29.9636L23.2891 32.9986L28.9544 23.1854Z" fill="#FACA15"/>
<path d="M14.75 18.0938C14.75 17.9583 14.7767 17.8242 14.8285 17.6991C14.8803 17.574 14.9563 17.4603 15.052 17.3645C15.1478 17.2688 15.2615 17.1928 15.3866 17.141C15.5117 17.0892 15.6458 17.0625 15.7812 17.0625C15.9167 17.0625 16.0508 17.0892 16.1759 17.141C16.301 17.1928 16.4147 17.2688 16.5105 17.3645C16.6062 17.4603 16.6822 17.574 16.734 17.6991C16.7858 17.8242 16.8125 17.9583 16.8125 18.0938C16.8125 18.3673 16.7039 18.6296 16.5105 18.823C16.3171 19.0164 16.0548 19.125 15.7812 19.125C15.5077 19.125 15.2454 19.0164 15.052 18.823C14.8586 18.6296 14.75 18.3673 14.75 18.0938ZM15.7812 16.375C15.3254 16.375 14.8882 16.5561 14.5659 16.8784C14.2436 17.2007 14.0625 17.6379 14.0625 18.0938C14.0625 18.5496 14.2436 18.9868 14.5659 19.3091C14.8882 19.6314 15.3254 19.8125 15.7812 19.8125C16.2371 19.8125 16.6743 19.6314 16.9966 19.3091C17.3189 18.9868 17.5 18.5496 17.5 18.0938C17.5 17.6379 17.3189 17.2007 16.9966 16.8784C16.6743 16.5561 16.2371 16.375 15.7812 16.375ZM19.2188 18.4375C19.2188 18.2552 19.2912 18.0803 19.4201 17.9514C19.549 17.8224 19.7239 17.75 19.9062 17.75C20.0886 17.75 20.2635 17.8224 20.3924 17.9514C20.5213 18.0803 20.5938 18.2552 20.5938 18.4375C20.5938 18.6198 20.5213 18.7947 20.3924 18.9236C20.2635 19.0526 20.0886 19.125 19.9062 19.125C19.7239 19.125 19.549 19.0526 19.4201 18.9236C19.2912 18.7947 19.2188 18.6198 19.2188 18.4375ZM18.8214 19.2831C19.1734 19.178 19.5389 19.1247 19.9062 19.125C20.2736 19.1247 20.6391 19.178 20.9911 19.2831C21.1494 19.08 21.2475 18.8365 21.2742 18.5804C21.3009 18.3243 21.2551 18.0658 21.1421 17.8344C21.029 17.603 20.8533 17.408 20.6349 17.2716C20.4165 17.1352 20.1641 17.0629 19.9066 17.0629C19.6491 17.0629 19.3967 17.1352 19.1783 17.2716C18.9599 17.408 18.7841 17.603 18.6711 17.8344C18.5581 18.0658 18.5123 18.3243 18.539 18.5804C18.5657 18.8365 18.6638 19.08 18.8221 19.2831M14.0625 20.5H16.9892C16.8141 20.7121 16.6626 20.9426 16.5375 21.1875H14.0625C13.9713 21.1875 13.8839 21.2237 13.8194 21.2882C13.755 21.3526 13.7188 21.4401 13.7188 21.5312V21.5979L13.7215 21.6309C13.748 21.8438 13.828 22.0465 13.9539 22.2201C14.178 22.5288 14.6661 22.9062 15.7812 22.9062C15.9032 22.9062 16.0178 22.9019 16.125 22.8932V22.9062C16.125 23.1359 16.1449 23.3598 16.1848 23.5779C16.0506 23.5889 15.9159 23.5941 15.7812 23.5938C14.4901 23.5938 13.7751 23.1441 13.3977 22.6251C13.2008 22.3534 13.077 22.0357 13.0381 21.7024C13.0348 21.6711 13.0325 21.6397 13.0312 21.6083V21.5312C13.0312 21.2577 13.1399 20.9954 13.3333 20.802C13.5267 20.6086 13.789 20.5 14.0625 20.5ZM23 22.9062C23 23.7268 22.6741 24.5137 22.0939 25.0939C21.5137 25.6741 20.7268 26 19.9062 26C19.0857 26 18.2988 25.6741 17.7186 25.0939C17.1384 24.5137 16.8125 23.7268 16.8125 22.9062C16.8125 22.0857 17.1384 21.2988 17.7186 20.7186C18.2988 20.1384 19.0857 19.8125 19.9062 19.8125C20.7268 19.8125 21.5137 20.1384 22.0939 20.7186C22.6741 21.2988 23 22.0857 23 22.9062ZM21.5246 21.6316C21.4927 21.5996 21.4548 21.5742 21.413 21.5569C21.3712 21.5396 21.3265 21.5306 21.2812 21.5306C21.236 21.5306 21.1913 21.5396 21.1495 21.5569C21.1077 21.5742 21.0698 21.5996 21.0379 21.6316L19.2188 23.4514L18.7746 23.0066C18.7101 22.9421 18.6225 22.9058 18.5312 22.9058C18.44 22.9058 18.3524 22.9421 18.2879 23.0066C18.2233 23.0712 18.1871 23.1587 18.1871 23.25C18.1871 23.3413 18.2233 23.4288 18.2879 23.4934L18.9754 24.1809C19.0073 24.2129 19.0452 24.2383 19.087 24.2556C19.1288 24.2729 19.1735 24.2819 19.2188 24.2819C19.264 24.2819 19.3087 24.2729 19.3505 24.2556C19.3923 24.2383 19.4302 24.2129 19.4621 24.1809L21.5246 22.1184C21.5566 22.0864 21.582 22.0485 21.5994 22.0067C21.6167 21.965 21.6256 21.9202 21.6256 21.875C21.6256 21.8298 21.6167 21.785 21.5994 21.7433C21.582 21.7015 21.5566 21.6636 21.5246 21.6316Z" fill="white"/>
</svg>
