<svg width="32" height="32" viewBox="0 0 32 32" fill="none" xmlns="http://www.w3.org/2000/svg">
<rect width="32" height="32" rx="4" fill="#FFC107" fill-opacity="0.1"/>
<path d="M9.32221 13.6826C11.7352 9.41162 12.9422 7.27663 14.5982 6.72663C15.5085 6.42446 16.492 6.42446 17.4022 6.72663C19.0582 7.27663 20.2652 9.41162 22.6782 13.6826C25.0922 17.9526 26.2982 20.0886 25.9372 21.8286C25.7372 22.7866 25.2472 23.6546 24.5352 24.3086C23.2412 25.4996 20.8272 25.4996 16.0002 25.4996C11.1732 25.4996 8.75921 25.4996 7.46521 24.3096C6.75045 23.6496 6.2602 22.7824 6.06321 21.8296C5.70121 20.0896 6.90821 17.9536 9.32221 13.6826Z" stroke="#FFC107" stroke-linecap="round" stroke-linejoin="round"/>
<path d="M16.2422 21V17C16.2422 16.529 16.2422 16.293 16.0962 16.146C15.9492 16 15.7142 16 15.2422 16M15.9922 13H16.0012" stroke="#FFC107" stroke-linecap="round" stroke-linejoin="round"/>
</svg>
